<svg style="position: absolute; width: 0; height: 0; overflow: hidden;" version="1.1" xmlns="http://www.w3.org/2000/svg" xmlns:xlink="http://www.w3.org/1999/xlink">
<defs>

<symbol id="icon-air-play" viewBox="0 0 32 32">
  <path class="path1" d="M8 29.333h16l-8-10.667-8 10.667zM13.333 26.667l2.667-3.556 2.667 3.556h-5.333zM26.667 2.667h-21.333c-2.21 0-4 1.79-4 4v13.333c0 2.21 1.79 4 4 4h3.333l2-2.667h-5.333c-0.737 0-1.333-0.597-1.333-1.333v-13.333c0-0.737 0.597-1.333 1.333-1.333h21.333c0.737 0 1.333 0.597 1.333 1.333v13.333c0 0.737-0.597 1.333-1.333 1.333h-5.333l2 2.667h3.333c2.21 0 4-1.79 4-4v-13.333c0-2.21-1.79-4-4-4z"></path>
</symbol>

<symbol id="icon-align-center" viewBox="0 0 32 32">
  <path class="path1" d="M4 9.333h24c0.736 0 1.333-0.597 1.333-1.333s-0.597-1.333-1.333-1.333h-24c-0.736 0-1.333 0.597-1.333 1.333s0.597 1.333 1.333 1.333zM6.667 12c-0.736 0-1.333 0.597-1.333 1.333s0.597 1.333 1.333 1.333h18.667c0.736 0 1.333-0.597 1.333-1.333s-0.597-1.333-1.333-1.333h-18.667zM28 17.333h-24c-0.736 0-1.333 0.597-1.333 1.333s0.597 1.333 1.333 1.333h24c0.736 0 1.333-0.597 1.333-1.333s-0.597-1.333-1.333-1.333zM25.333 22.667h-18.667c-0.736 0-1.333 0.597-1.333 1.333s0.597 1.333 1.333 1.333h18.667c0.736 0 1.333-0.597 1.333-1.333s-0.597-1.333-1.333-1.333z"></path>
</symbol>

<symbol id="icon-align-justify" viewBox="0 0 32 32">
  <path class="path1" d="M4 9.333h24c0.736 0 1.333-0.597 1.333-1.333s-0.597-1.333-1.333-1.333h-24c-0.736 0-1.333 0.597-1.333 1.333s0.597 1.333 1.333 1.333zM28 12h-24c-0.736 0-1.333 0.597-1.333 1.333s0.597 1.333 1.333 1.333h24c0.736 0 1.333-0.597 1.333-1.333s-0.597-1.333-1.333-1.333zM28 17.333h-24c-0.736 0-1.333 0.597-1.333 1.333s0.597 1.333 1.333 1.333h24c0.736 0 1.333-0.597 1.333-1.333s-0.597-1.333-1.333-1.333zM28 22.667h-24c-0.736 0-1.333 0.597-1.333 1.333s0.597 1.333 1.333 1.333h24c0.736 0 1.333-0.597 1.333-1.333s-0.597-1.333-1.333-1.333z"></path>
</symbol>

<symbol id="icon-align-left" viewBox="0 0 32 32">
  <path class="path1" d="M4 9.333h24c0.736 0 1.333-0.597 1.333-1.333s-0.597-1.333-1.333-1.333h-24c-0.736 0-1.333 0.597-1.333 1.333s0.597 1.333 1.333 1.333zM4 14.667h18.667c0.736 0 1.333-0.597 1.333-1.333s-0.597-1.333-1.333-1.333h-18.667c-0.736 0-1.333 0.597-1.333 1.333s0.597 1.333 1.333 1.333zM28 17.333h-24c-0.736 0-1.333 0.597-1.333 1.333s0.597 1.333 1.333 1.333h24c0.736 0 1.333-0.597 1.333-1.333s-0.597-1.333-1.333-1.333zM22.667 22.667h-18.667c-0.736 0-1.333 0.597-1.333 1.333s0.597 1.333 1.333 1.333h18.667c0.736 0 1.333-0.597 1.333-1.333s-0.597-1.333-1.333-1.333z"></path>
</symbol>

<symbol id="icon-align-right" viewBox="0 0 32 32">
  <path class="path1" d="M29.333 8c0-0.736-0.597-1.333-1.333-1.333h-24c-0.736 0-1.333 0.597-1.333 1.333s0.597 1.333 1.333 1.333h24c0.736 0 1.333-0.597 1.333-1.333zM29.333 13.333c0-0.736-0.597-1.333-1.333-1.333h-18.667c-0.736 0-1.333 0.597-1.333 1.333s0.597 1.333 1.333 1.333h18.667c0.736 0 1.333-0.597 1.333-1.333zM2.667 18.667c0 0.736 0.597 1.333 1.333 1.333h24c0.736 0 1.333-0.597 1.333-1.333s-0.597-1.333-1.333-1.333h-24c-0.736 0-1.333 0.597-1.333 1.333zM8 24c0 0.736 0.597 1.333 1.333 1.333h18.667c0.736 0 1.333-0.597 1.333-1.333s-0.597-1.333-1.333-1.333h-18.667c-0.736 0-1.333 0.597-1.333 1.333z"></path>
</symbol>

<symbol id="icon-alt" viewBox="0 0 32 32">
  <path class="path1" d="M28 26.667h-6.667c-0.479 0-0.92-0.257-1.158-0.672l-10.283-17.995h-5.893c-0.736 0-1.333-0.597-1.333-1.333s0.597-1.333 1.333-1.333h6.667c0.479 0 0.92 0.257 1.158 0.672l10.283 17.995h5.893c0.736 0 1.333 0.597 1.333 1.333s-0.597 1.333-1.333 1.333zM26.667 6.667c0-0.736-0.597-1.333-1.333-1.333h-6.667c-0.736 0-1.333 0.597-1.333 1.333s0.597 1.333 1.333 1.333h6.667c0.736 0 1.333-0.597 1.333-1.333z"></path>
</symbol>

<symbol id="icon-anchor" viewBox="0 0 32 32">
  <path class="path1" d="M29.333 14.667c-0.736 0-1.333 0.597-1.333 1.333 0 6.176-4.667 11.261-10.667 11.924v-16.099c2.299-0.593 4-2.675 4-5.159 0-2.945-2.388-5.333-5.333-5.333s-5.333 2.388-5.333 5.333c0 2.484 1.701 4.566 4 5.159v16.099c-6-0.664-10.667-5.748-10.667-11.925 0-0.736-0.597-1.333-1.333-1.333s-1.333 0.597-1.333 1.333c0 8.1 6.567 14.667 14.667 14.667s14.667-6.566 14.667-14.667c0-0.736-0.597-1.333-1.333-1.333zM13.333 6.667c0-1.473 1.194-2.667 2.667-2.667s2.667 1.194 2.667 2.667-1.194 2.667-2.667 2.667-2.667-1.194-2.667-2.667z"></path>
</symbol>

<symbol id="icon-archive" viewBox="0 0 32 32">
  <path class="path1" d="M24 4h-16l-8 8v12c0 2.21 1.853 4 4.063 4h23.937c2.21 0 4-1.79 4-4v-11.958l-8-8.042zM9.104 6.667h13.841l5.287 5.36-6.899-0.027c0 2.667-2.388 5.333-5.333 5.333s-5.333-2.667-5.333-5.333h-6.896l5.333-5.333zM29.333 24c0 0.735-0.598 1.333-1.333 1.333h-23.937c-0.757 0-1.396-0.611-1.396-1.333v-9.333h5.747c1.152 3.041 4.208 5.333 7.546 5.333 3.334 0 6.368-2.288 7.522-5.325l5.852 0.023v9.302z"></path>
</symbol>

<symbol id="icon-arrow-down" viewBox="0 0 32 32">
  <path class="path1" d="M14.667 4v20.781l-7.057-7.057c-0.521-0.521-1.365-0.521-1.885 0s-0.521 1.365 0 1.886l9.333 9.333c0.521 0.521 1.365 0.521 1.885 0l9.333-9.333c0.26-0.26 0.391-0.602 0.391-0.943s-0.13-0.682-0.391-0.943c-0.521-0.521-1.365-0.521-1.885 0l-7.057 7.057v-20.781c0-0.736-0.597-1.333-1.333-1.333s-1.333 0.597-1.333 1.333z"></path>
</symbol>

<symbol id="icon-arrow-left" viewBox="0 0 32 32">
  <path class="path1" d="M28 14.666h-20.781l7.057-7.057c0.521-0.521 0.52-1.365 0-1.886s-1.365-0.521-1.886 0l-9.333 9.333c-0.521 0.521-0.521 1.365-0 1.885l9.333 9.333c0.26 0.26 0.602 0.391 0.943 0.391s0.682-0.13 0.943-0.391c0.521-0.52 0.52-1.365 0-1.885l-7.058-7.057h20.781c0.736 0 1.334-0.597 1.333-1.333s-0.597-1.333-1.333-1.333z"></path>
</symbol>

<symbol id="icon-arrow-right" viewBox="0 0 32 32">
  <path class="path1" d="M4 17.333h20.781l-7.057 7.057c-0.521 0.521-0.521 1.365 0 1.885s1.365 0.521 1.886 0l9.333-9.333c0.521-0.521 0.521-1.365 0-1.885l-9.333-9.333c-0.26-0.26-0.602-0.391-0.943-0.391s-0.682 0.13-0.943 0.391c-0.521 0.521-0.521 1.365 0 1.885l7.057 7.057h-20.781c-0.736 0-1.333 0.597-1.333 1.333s0.597 1.333 1.333 1.333z"></path>
</symbol>

<symbol id="icon-arrow-up" viewBox="0 0 32 32">
  <path class="path1" d="M17.333 28v-20.781l7.057 7.057c0.521 0.521 1.365 0.521 1.885 0s0.521-1.365 0-1.886l-9.333-9.333c-0.521-0.521-1.365-0.521-1.885 0l-9.333 9.333c-0.26 0.26-0.391 0.601-0.391 0.943s0.13 0.682 0.391 0.943c0.521 0.521 1.365 0.521 1.885 0l7.057-7.057v20.781c0 0.736 0.597 1.333 1.333 1.333s1.333-0.597 1.333-1.333z"></path>
</symbol>

<symbol id="icon-bag" viewBox="0 0 32 32">
  <path class="path1" d="M22.667 8v-1.333c0-3.682-2.985-6.667-6.667-6.667s-6.667 2.985-6.667 6.667v1.333h-5.333v20c0 2.21 1.79 4 4 4h16c2.21 0 4-1.79 4-4v-20h-5.333zM12 6.667c0-2.209 1.791-4 4-4s4 1.791 4 4v1.333h-8v-1.333zM25.333 28c0 0.737-0.597 1.333-1.333 1.333h-16c-0.737 0-1.333-0.597-1.333-1.333v-17.333h18.667v17.333z"></path>
</symbol>

<symbol id="icon-ban" viewBox="0 0 32 32">
  <path class="path1" d="M16 1.333c-8.1 0-14.667 6.567-14.667 14.667s6.567 14.667 14.667 14.667c8.1 0 14.667-6.566 14.667-14.667s-6.566-14.667-14.667-14.667zM4 16c0-2.833 0.984-5.436 2.626-7.488l16.862 16.862c-2.053 1.642-4.655 2.626-7.488 2.626-6.627 0-12-5.373-12-12zM25.374 23.488l-16.862-16.862c2.052-1.642 4.655-2.626 7.488-2.626 6.627 0 12 5.373 12 12 0 2.833-0.984 5.436-2.626 7.488z"></path>
</symbol>

<symbol id="icon-bar-graph-2" viewBox="0 0 32 32">
  <path class="path1" d="M16 1.333c-2.209 0-4 1.791-4 4v21.333c0 2.209 1.791 4 4 4s4-1.791 4-4v-21.333c0-2.209-1.791-4-4-4zM17.333 26.667c0 0.736-0.597 1.333-1.333 1.333s-1.333-0.597-1.333-1.333v-21.333c0-0.736 0.597-1.333 1.333-1.333s1.333 0.597 1.333 1.333v21.333zM26.667 9.333c-2.209 0-4 1.791-4 4v13.333c0 2.209 1.791 4 4 4s4-1.791 4-4v-13.333c0-2.209-1.791-4-4-4zM28 26.667c0 0.736-0.597 1.333-1.333 1.333s-1.333-0.597-1.333-1.333v-13.333c0-0.736 0.597-1.333 1.333-1.333s1.333 0.597 1.333 1.333v13.333zM5.333 17.333c-2.209 0-4 1.791-4 4v5.333c0 2.209 1.791 4 4 4s4-1.791 4-4v-5.333c0-2.209-1.791-4-4-4zM6.667 26.667c0 0.736-0.597 1.333-1.333 1.333s-1.333-0.597-1.333-1.333v-5.333c0-0.736 0.597-1.333 1.333-1.333s1.333 0.597 1.333 1.333v5.333z"></path>
</symbol>

<symbol id="icon-bar-graph" viewBox="0 0 32 32">
  <path class="path1" d="M26.667 1.333c-2.209 0-4 1.791-4 4v21.333c0 2.209 1.791 4 4 4s4-1.791 4-4v-21.333c0-2.209-1.791-4-4-4zM28 26.667c0 0.736-0.597 1.333-1.333 1.333s-1.333-0.597-1.333-1.333v-21.333c0-0.736 0.597-1.333 1.333-1.333s1.333 0.597 1.333 1.333v21.333zM16 9.333c-2.209 0-4 1.791-4 4v13.333c0 2.209 1.791 4 4 4s4-1.791 4-4v-13.333c0-2.209-1.791-4-4-4zM17.333 26.667c0 0.736-0.597 1.333-1.333 1.333s-1.333-0.597-1.333-1.333v-13.333c0-0.736 0.597-1.333 1.333-1.333s1.333 0.597 1.333 1.333v13.333zM5.333 17.333c-2.209 0-4 1.791-4 4v5.333c0 2.209 1.791 4 4 4s4-1.791 4-4v-5.333c0-2.209-1.791-4-4-4zM6.667 26.667c0 0.736-0.597 1.333-1.333 1.333s-1.333-0.597-1.333-1.333v-5.333c0-0.736 0.597-1.333 1.333-1.333s1.333 0.597 1.333 1.333v5.333z"></path>
</symbol>

<symbol id="icon-battery" viewBox="0 0 32 32">
  <path class="path1" d="M28 10.667c0-2.21-1.79-4-4-4h-20c-2.21 0-4 1.79-4 4v10.667c0 2.21 1.79 4 4 4h20c2.21 0 4-1.79 4-4 2.21 0 4-1.79 4-4v-2.667c0-2.21-1.79-4-4-4zM25.333 21.333c0 0.737-0.597 1.333-1.333 1.333h-20c-0.737 0-1.333-0.597-1.333-1.333v-10.667c0-0.737 0.597-1.333 1.333-1.333h20c0.737 0 1.333 0.597 1.333 1.333v10.667zM29.333 17.333c0 0.737-0.597 1.333-1.333 1.333v-5.333c0.737 0 1.333 0.597 1.333 1.333v2.667z"></path>
</symbol>

<symbol id="icon-bell" viewBox="0 0 32 32">
  <path class="path1" d="M32 25.333c-2.667-2.667-4-6.667-5.333-13.333-1.155-5.776-4.777-10.667-10.667-10.667s-9.512 4.891-10.667 10.667c-1.333 6.667-2.667 10.667-5.333 13.333h12.232c-0.148 0.418-0.232 0.865-0.232 1.333 0 2.209 1.791 4 4 4s4-1.791 4-4c0-0.468-0.085-0.916-0.232-1.333h12.232zM7.948 12.523c0.4-1.999 2.162-8.523 8.052-8.523s7.652 6.524 8.052 8.523c0.826 4.133 1.677 7.448 2.941 10.144h-21.986c1.264-2.696 2.115-6.011 2.941-10.144zM17.333 26.667c0 0.735-0.598 1.333-1.333 1.333s-1.333-0.598-1.333-1.333 0.598-1.333 1.333-1.333 1.333 0.598 1.333 1.333z"></path>
</symbol>

<symbol id="icon-book" viewBox="0 0 32 32">
  <path class="path1" d="M6.667 1.333c-2.21 0-4 1.79-4 4v21.333c0 2.21 1.79 4 4 4h21.333v-29.333h-21.333zM25.333 28h-18.667c-0.736 0-1.333-0.597-1.333-1.333s0.597-1.333 1.333-1.333h18.667v2.667zM25.333 22.667h-18.667c-0.468 0-0.916 0.085-1.333 0.232v-17.566c0-0.737 0.597-1.333 1.333-1.333h18.667v18.667z"></path>
</symbol>

<symbol id="icon-box" viewBox="0 0 32 32">
  <path class="path1" d="M16 0l-14.667 6.667v18.667l14.667 6.667 14.667-6.667v-18.667l-14.667-6.667zM16 2.93l9.833 4.47-9.833 4.47-9.837-4.47 9.837-4.47zM4 23.617v-14.273l10.667 4.847v14.273l-10.667-4.847zM28 23.617l-10.667 4.847v-14.274l10.667-4.847v14.274z"></path>
</symbol>

<symbol id="icon-briefcase" viewBox="0 0 32 32">
  <path class="path1" d="M26.667 6.667h-4v-1.333c0-2.21-1.79-4-4-4h-5.333c-2.21 0-4 1.79-4 4v1.333h-4c-2.209 0-4 1.791-4 4v13.333c0 2.209 1.791 4 4 4h21.333c2.209 0 4-1.791 4-4v-13.333c0-2.209-1.791-4-4-4zM22.667 9.333v16h-13.333v-16h13.333zM12 5.333c0-0.737 0.597-1.333 1.333-1.333h5.333c0.737 0 1.333 0.597 1.333 1.333v1.333h-8v-1.333zM4 24v-13.333c0-0.737 0.597-1.333 1.333-1.333h1.333v16h-1.333c-0.737 0-1.333-0.597-1.333-1.333zM28 24c0 0.737-0.597 1.333-1.333 1.333h-1.333v-16h1.333c0.737 0 1.333 0.597 1.333 1.333v13.333z"></path>
</symbol>

<symbol id="icon-camera" viewBox="0 0 32 32">
  <path class="path1" d="M28 6.666h-4l-2.667-4h-10.667l-2.667 4h-4c-2.21 0-4 1.811-4 4.021v14.646c0 2.21 1.79 4 4 4h24c2.21 0 4-1.77 4-3.979v-14.646c0-2.21-1.79-4.042-4-4.042zM29.333 25.354c0 0.737-0.586 1.313-1.333 1.313h-24c-0.735 0-1.333-0.598-1.333-1.333v-14.646c0-0.746 0.598-1.354 1.333-1.354h5.427l2.667-4h7.859l2.62 4h5.427c0.723 0 1.333 0.63 1.333 1.375v14.646zM16 10.667c-3.682 0-6.667 2.985-6.667 6.667s2.985 6.667 6.667 6.667c3.682 0 6.667-2.985 6.667-6.667s-2.985-6.667-6.667-6.667zM16 21.333c-2.206 0-4-1.794-4-4s1.794-4 4-4c2.206 0 4 1.794 4 4s-1.795 4-4 4z"></path>
</symbol>

<symbol id="icon-check" viewBox="0 0 32 32">
  <path class="path1" d="M12 25.333c-0.354 0-0.693-0.14-0.943-0.39l-8-8c-0.521-0.521-0.521-1.365 0-1.885s1.365-0.521 1.885 0l7.057 7.057 15.057-15.057c0.521-0.521 1.365-0.521 1.885 0s0.521 1.365 0 1.886l-16 16c-0.25 0.25-0.589 0.39-0.943 0.39z"></path>
</symbol>

<symbol id="icon-circle-add" viewBox="0 0 32 32">
  <path class="path1" d="M16 1.333c-8.1 0-14.667 6.566-14.667 14.667s6.567 14.667 14.667 14.667 14.667-6.566 14.667-14.667-6.567-14.667-14.667-14.667zM16 28c-6.627 0-12-5.373-12-12s5.373-12 12-12 12 5.373 12 12-5.373 12-12 12zM21.333 14.667h-4v-4c0-0.736-0.597-1.333-1.333-1.333s-1.333 0.597-1.333 1.333v4h-4c-0.736 0-1.333 0.597-1.333 1.333s0.597 1.333 1.333 1.333h4v4c0 0.736 0.597 1.333 1.333 1.333s1.333-0.597 1.333-1.333v-4h4c0.736 0 1.333-0.597 1.333-1.333s-0.597-1.333-1.333-1.333z"></path>
</symbol>

<symbol id="icon-circle-check" viewBox="0 0 32 32">
  <path class="path1" d="M16 1.333c-8.1 0-14.667 6.566-14.667 14.667s6.567 14.667 14.667 14.667 14.667-6.566 14.667-14.667-6.567-14.667-14.667-14.667zM16 28c-6.627 0-12-5.373-12-12s5.373-12 12-12 12 5.373 12 12-5.373 12-12 12zM19.542 12.39l-4.714 4.714-1.885-1.885c-0.521-0.521-1.365-0.521-1.886 0s-0.521 1.365 0 1.886l2.828 2.827c0.521 0.521 1.365 0.521 1.886 0l5.657-5.657c0.521-0.521 0.521-1.365 0-1.886-0.52-0.52-1.365-0.52-1.886 0.001z"></path>
</symbol>

<symbol id="icon-circle-cross" viewBox="0 0 32 32">
  <path class="path1" d="M16 1.333c-8.1 0-14.667 6.566-14.667 14.667s6.567 14.667 14.667 14.667 14.667-6.566 14.667-14.667-6.567-14.667-14.667-14.667zM16 28c-6.627 0-12-5.373-12-12s5.373-12 12-12 12 5.373 12 12-5.373 12-12 12zM20.714 11.286c-0.521-0.521-1.366-0.521-1.886 0l-2.828 2.828-2.828-2.828c-0.521-0.521-1.365-0.521-1.886 0s-0.521 1.365 0 1.885l2.828 2.828-2.828 2.828c-0.521 0.521-0.521 1.365 0 1.885s1.365 0.521 1.886 0l2.828-2.828 2.828 2.828c0.521 0.521 1.365 0.521 1.886 0s0.521-1.366 0-1.885l-2.828-2.828 2.828-2.828c0.521-0.521 0.521-1.365 0-1.886z"></path>
</symbol>

<symbol id="icon-circle-minus" viewBox="0 0 32 32">
  <path class="path1" d="M16 1.333c-8.1 0-14.667 6.566-14.667 14.667s6.567 14.667 14.667 14.667 14.667-6.566 14.667-14.667-6.567-14.667-14.667-14.667zM16 28c-6.627 0-12-5.373-12-12s5.373-12 12-12 12 5.373 12 12-5.373 12-12 12zM21.333 14.667h-10.667c-0.736 0-1.333 0.597-1.333 1.333s0.597 1.333 1.333 1.333h10.667c0.736 0 1.333-0.597 1.333-1.333s-0.597-1.333-1.333-1.333z"></path>
</symbol>

<symbol id="icon-clipboard" viewBox="0 0 32 32">
  <path class="path1" d="M24 4h-1.566c-0.55-1.553-2.027-2.667-3.768-2.667h-5.333c-1.741 0-3.217 1.114-3.768 2.667h-1.566c-2.21 0-4 1.79-4 4v18.667c0 2.21 1.79 4 4 4h16c2.21 0 4-1.79 4-4v-18.667c0-2.21-1.79-4-4-4zM13.333 4h5.333c0.736 0 1.333 0.597 1.333 1.333s-0.597 1.333-1.333 1.333h-5.333c-0.736 0-1.333-0.597-1.333-1.333s0.597-1.333 1.333-1.333zM25.333 26.667c0 0.737-0.597 1.333-1.333 1.333h-16c-0.737 0-1.333-0.597-1.333-1.333v-18.667c0-0.737 0.597-1.333 1.333-1.333h1.566c0.549 1.553 2.027 2.667 3.768 2.667h5.333c1.741 0 3.217-1.114 3.768-2.667h1.566c0.737 0 1.333 0.597 1.333 1.333v18.667z"></path>
</symbol>

<symbol id="icon-clock" viewBox="0 0 32 32">
  <path class="path1" d="M16 1.333c-8.1 0-14.667 6.567-14.667 14.667s6.566 14.667 14.667 14.667 14.667-6.566 14.667-14.667c0-8.1-6.566-14.667-14.667-14.667zM16 28c-6.627 0-12-5.372-12-12s5.373-12 12-12 12 5.373 12 12c0 6.628-5.373 12-12 12zM20.943 19.057c0.521 0.521 0.521 1.365 0 1.886-0.26 0.26-0.602 0.39-0.943 0.39s-0.682-0.13-0.943-0.39l-4-4c-0.25-0.25-0.391-0.589-0.391-0.943v-8c0-0.736 0.597-1.333 1.333-1.333s1.333 0.597 1.333 1.333v7.448l3.609 3.609z"></path>
</symbol>

<symbol id="icon-cloud-download" viewBox="0 0 32 32">
  <path class="path1" d="M22.276 21.724c0.521 0.521 0.521 1.365 0 1.885l-4 4c-0.25 0.25-0.589 0.391-0.943 0.391s-0.693-0.141-0.943-0.391l-4-4c-0.521-0.521-0.521-1.365 0-1.885s1.365-0.521 1.885 0l1.724 1.724v-8.781c0-0.736 0.597-1.333 1.333-1.333s1.333 0.597 1.333 1.333v8.781l1.724-1.724c0.52-0.521 1.365-0.521 1.885 0zM20 2.667c-5.224 0-9.666 3.34-11.314 8h-0.685c0 0-0 0-0.001 0-4.418 0-8 3.582-8 8s3.582 8 8 8c0.009 0 0.017-0.001 0.026-0.001h3.65l-1.172-1.172c-0.381-0.381-0.676-0.826-0.879-1.325-0.023-0.057-0.044-0.113-0.064-0.171h-1.562c-0.736 0-1.438-0.149-2.076-0.419-1.914-0.81-3.257-2.705-3.257-4.914 0-2.946 2.388-5.333 5.333-5.333h2.766c0.647-4.522 4.533-8 9.234-8 5.155 0 9.333 4.179 9.333 9.333 0 3.177-1.588 5.984-4.014 7.67 0.009 0.109 0.014 0.219 0.014 0.33 0 0.518-0.099 1.024-0.293 1.504-0.202 0.498-0.497 0.943-0.879 1.325l-0.649 0.649c4.914-1.502 8.488-6.073 8.488-11.478 0-6.627-5.373-12-12-12z"></path>
</symbol>

<symbol id="icon-cloud-upload" viewBox="0 0 32 32">
  <path class="path1" d="M32 14.667c0 6.176-4.667 11.263-10.667 11.927v-2.688c4.523-0.647 8-4.537 8-9.239 0-5.155-4.179-9.333-9.333-9.333-4.701 0-8.587 3.478-9.234 8h-2.766c-2.945 0-5.333 2.388-5.333 5.333 0 2.209 1.343 4.104 3.257 4.914 0.638 0.27 1.34 0.419 2.076 0.419h5.333v2.667h-5.307c-0.009 0-0.017 0.001-0.026 0.001-4.418 0-8-3.582-8-8s3.582-8 8-8v0h0.686c1.648-4.66 6.090-8 11.314-8 6.627 0 12 5.373 12 12zM22.276 19.61c0.521-0.521 0.521-1.365 0-1.885l-4-4c-0.25-0.25-0.589-0.391-0.943-0.391s-0.693 0.141-0.943 0.391l-4 4c-0.521 0.521-0.521 1.365 0 1.885s1.365 0.521 1.885 0l1.724-1.724v8.781c0 0.736 0.597 1.333 1.333 1.333s1.333-0.597 1.333-1.333v-8.781l1.724 1.724c0.52 0.521 1.365 0.521 1.885 0z"></path>
</symbol>

<symbol id="icon-cloud" viewBox="0 0 32 32">
  <path class="path1" d="M20 4c-5.224 0-9.666 3.34-11.314 8h-0.686c-4.418 0-8 3.582-8 8s3.582 8 8 8c0.009 0 0.017-0.001 0.026-0.001h11.974c6.627 0 12-5.373 12-12s-5.373-12-12-12zM20 25.333h-12c-2.945 0-5.333-2.388-5.333-5.333s2.388-5.333 5.333-5.333h2.766c0.647-4.522 4.533-8 9.234-8 5.155 0 9.333 4.179 9.333 9.333s-4.179 9.333-9.333 9.333z"></path>
</symbol>

<symbol id="icon-cog" viewBox="0 0 32 32">
  <path class="path1" d="M28 20c2.209 0 4-1.791 4-4s-1.791-4-4-4h-0.683c-0.142-0.401-0.304-0.793-0.487-1.174l0.483-0.483c1.562-1.562 1.562-4.095 0-5.657s-4.095-1.562-5.657 0l-0.483 0.483c-0.381-0.182-0.772-0.345-1.174-0.487v-0.683c0-2.209-1.791-4-4-4s-4 1.791-4 4v0.683c-0.401 0.142-0.793 0.304-1.174 0.487l-0.483-0.483c-1.562-1.562-4.095-1.562-5.657 0s-1.562 4.095 0 5.657l0.483 0.483c-0.182 0.381-0.345 0.772-0.487 1.174h-0.683c-2.209 0-4 1.791-4 4s1.791 4 4 4h0.683c0.142 0.401 0.304 0.793 0.487 1.174l-0.483 0.483c-1.562 1.562-1.562 4.095 0 5.657s4.095 1.562 5.657 0l0.483-0.483c0.381 0.182 0.772 0.345 1.174 0.487v0.683c0 2.209 1.791 4 4 4s4-1.791 4-4v-0.683c0.401-0.142 0.793-0.304 1.174-0.487l0.483 0.483c1.562 1.562 4.095 1.562 5.657 0s1.562-4.095 0-5.657l-0.483-0.483c0.182-0.381 0.345-0.772 0.487-1.174h0.683zM25.239 17.333c-0.226 1.581-0.849 3.035-1.764 4.256l1.953 1.953c0.521 0.521 0.521 1.365 0 1.886s-1.365 0.521-1.886 0l-0.052-0.052-1.901-1.9c-1.222 0.915-2.675 1.537-4.256 1.764v2.761c0 0.736-0.597 1.333-1.333 1.333s-1.333-0.597-1.333-1.333v-2.761c-1.581-0.226-3.035-0.849-4.256-1.764l-1.953 1.953c-0.521 0.521-1.365 0.521-1.886 0s-0.521-1.365 0-1.886l0.052-0.052 1.9-1.901c-0.915-1.222-1.537-2.675-1.764-4.256h-2.761c-0.736 0-1.333-0.597-1.333-1.333s0.597-1.333 1.333-1.333h2.761c0.226-1.581 0.849-3.035 1.764-4.256l-1.953-1.953c-0.521-0.521-0.521-1.365 0-1.886s1.365-0.521 1.886 0l0.052 0.052 1.901 1.9c1.222-0.915 2.675-1.537 4.256-1.764v-2.761c0-0.736 0.597-1.333 1.333-1.333s1.333 0.597 1.333 1.333v2.761c1.581 0.226 3.035 0.849 4.256 1.764l1.953-1.953c0.521-0.521 1.365-0.521 1.886 0s0.521 1.365 0 1.886l-0.052 0.052-1.9 1.901c0.915 1.222 1.537 2.675 1.764 4.256h2.761c0.736 0 1.333 0.597 1.333 1.333s-0.597 1.333-1.333 1.333h-2.761zM16 10.667c-2.946 0-5.333 2.388-5.333 5.333s2.388 5.333 5.333 5.333 5.333-2.388 5.333-5.333-2.388-5.333-5.333-5.333zM16 18.667c-1.473 0-2.667-1.194-2.667-2.667s1.194-2.667 2.667-2.667 2.667 1.194 2.667 2.667-1.194 2.667-2.667 2.667z"></path>
</symbol>

<symbol id="icon-columns" viewBox="0 0 32 32">
  <path class="path1" d="M28 4h-24c-2.21 0-4 1.79-4 4v16c0 2.21 1.79 4 4 4h24c2.21 0 4-1.79 4-4v-16c0-2.21-1.79-4-4-4zM20 6.667v18.667h-8v-18.667h8zM2.667 24v-16c0-0.737 0.597-1.333 1.333-1.333h5.333v18.667h-5.333c-0.737 0-1.333-0.597-1.333-1.333zM29.333 24c0 0.737-0.597 1.333-1.333 1.333h-5.333v-18.667h5.333c0.737 0 1.333 0.597 1.333 1.333v16z"></path>
</symbol>

<symbol id="icon-command" viewBox="0 0 32 32">
  <path class="path1" d="M24 18.667v0h-2.667v-5.333h2.667c2.945 0 5.333-2.388 5.333-5.333s-2.388-5.333-5.333-5.333c-2.946 0-5.333 2.388-5.333 5.333v2.667h-5.333v-2.667c0-2.945-2.388-5.333-5.333-5.333s-5.333 2.388-5.333 5.333 2.388 5.333 5.333 5.333h2.667v5.333h-2.667c-2.945 0-5.333 2.388-5.333 5.333s2.388 5.333 5.333 5.333c2.946 0 5.333-2.388 5.333-5.333v0-2.667h5.333v2.66c0 0.003-0 0.005-0 0.007 0 2.945 2.388 5.333 5.333 5.333s5.333-2.388 5.333-5.333-2.388-5.333-5.333-5.333zM24 5.333c1.473 0 2.667 1.194 2.667 2.667s-1.194 2.667-2.667 2.667h-2.667v-2.667c0-1.473 1.194-2.667 2.667-2.667zM5.333 8c0-1.473 1.194-2.667 2.667-2.667s2.667 1.194 2.667 2.667v2.667h-2.667c-1.473 0-2.667-1.194-2.667-2.667zM8 26.667c-1.473 0-2.667-1.194-2.667-2.667s1.194-2.667 2.667-2.667v0h2.667v2.667c0 1.473-1.194 2.667-2.667 2.667zM13.333 18.667v-5.333h5.333v5.333h-5.333zM24 26.667c-1.473 0-2.667-1.194-2.667-2.667v0-2.667h2.666c1.473 0 2.667 1.194 2.667 2.667s-1.194 2.667-2.666 2.667z"></path>
</symbol>

<symbol id="icon-content-left" viewBox="0 0 32 32">
  <path class="path1" d="M17.333 5.333v5.333c0 2.21 1.79 4 4 4h5.333c2.21 0 4-1.79 4-4v-5.333c0-2.21-1.79-4-4-4h-5.333c-2.21 0-4 1.79-4 4zM20 5.333c0-0.737 0.597-1.333 1.333-1.333h5.333c0.737 0 1.333 0.597 1.333 1.333v5.333c0 0.737-0.597 1.333-1.333 1.333h-5.333c-0.737 0-1.333-0.597-1.333-1.333v-5.333zM1.333 5.333v21.333c0 2.21 1.79 4 4 4h5.333c2.21 0 4-1.79 4-4v-21.333c0-2.21-1.79-4-4-4h-5.333c-2.21 0-4 1.79-4 4zM4 5.333c0-0.737 0.597-1.333 1.333-1.333h5.333c0.737 0 1.333 0.597 1.333 1.333v21.333c0 0.737-0.597 1.333-1.333 1.333h-5.333c-0.737 0-1.333-0.597-1.333-1.333v-21.333zM17.333 21.333v5.333c0 2.21 1.79 4 4 4h5.333c2.21 0 4-1.79 4-4v-5.333c0-2.21-1.79-4-4-4h-5.333c-2.21 0-4 1.79-4 4zM20 21.333c0-0.737 0.597-1.333 1.333-1.333h5.333c0.737 0 1.333 0.597 1.333 1.333v5.333c0 0.737-0.597 1.333-1.333 1.333h-5.333c-0.737 0-1.333-0.597-1.333-1.333v-5.333z"></path>
</symbol>

<symbol id="icon-content-right" viewBox="0 0 32 32">
  <path class="path1" d="M10.667 1.333h-5.333c-2.21 0-4 1.79-4 4v5.333c0 2.21 1.79 4 4 4h5.333c2.21 0 4-1.79 4-4v-5.333c0-2.21-1.79-4-4-4zM12 10.667c0 0.737-0.597 1.333-1.333 1.333h-5.333c-0.737 0-1.333-0.597-1.333-1.333v-5.333c0-0.737 0.597-1.333 1.333-1.333h5.333c0.737 0 1.333 0.597 1.333 1.333v5.333zM26.667 1.333h-5.333c-2.21 0-4 1.79-4 4v21.333c0 2.21 1.79 4 4 4h5.333c2.21 0 4-1.79 4-4v-21.333c0-2.21-1.79-4-4-4zM28 26.667c0 0.737-0.597 1.333-1.333 1.333h-5.333c-0.737 0-1.333-0.597-1.333-1.333v-21.333c0-0.737 0.597-1.333 1.333-1.333h5.333c0.737 0 1.333 0.597 1.333 1.333v21.333zM10.667 17.333h-5.333c-2.21 0-4 1.79-4 4v5.333c0 2.21 1.79 4 4 4h5.333c2.21 0 4-1.79 4-4v-5.333c0-2.21-1.79-4-4-4zM12 26.667c0 0.737-0.597 1.333-1.333 1.333h-5.333c-0.737 0-1.333-0.597-1.333-1.333v-5.333c0-0.737 0.597-1.333 1.333-1.333h5.333c0.737 0 1.333 0.597 1.333 1.333v5.333z"></path>
</symbol>

<symbol id="icon-contract" viewBox="0 0 32 32">
  <path class="path1" d="M25.333 10.667h4c0.736 0 1.333-0.597 1.333-1.333s-0.597-1.333-1.333-1.333h-4c-0.737 0-1.333-0.597-1.333-1.333v-4c0-0.736-0.597-1.333-1.333-1.333s-1.333 0.597-1.333 1.333v4c0 2.209 1.791 4 4 4zM2.667 10.667h4c2.209 0 4-1.791 4-4v-4c0-0.736-0.597-1.333-1.333-1.333s-1.333 0.597-1.333 1.333v4c0 0.737-0.597 1.333-1.333 1.333h-4c-0.736 0-1.333 0.597-1.333 1.333s0.597 1.333 1.333 1.333zM22.667 30.667c0.736 0 1.333-0.597 1.333-1.333v-4c0-0.737 0.597-1.333 1.333-1.333h4c0.736 0 1.333-0.597 1.333-1.333s-0.597-1.333-1.333-1.333h-4c-2.209 0-4 1.791-4 4v4c0 0.736 0.597 1.333 1.333 1.333zM2.667 24h4c0.737 0 1.333 0.597 1.333 1.333v4c0 0.736 0.597 1.333 1.333 1.333s1.333-0.597 1.333-1.333v-4c0-2.209-1.791-4-4-4h-4c-0.736 0-1.333 0.597-1.333 1.333s0.597 1.333 1.333 1.333z"></path>
</symbol>

<symbol id="icon-cross" viewBox="0 0 32 32">
  <path class="path1" d="M17.886 16l8.39-8.391c0.521-0.521 0.521-1.365 0-1.885s-1.365-0.521-1.885 0l-8.391 8.39-8.39-8.39c-0.521-0.521-1.365-0.521-1.886 0s-0.521 1.365 0 1.885l8.391 8.391-8.391 8.391c-0.521 0.521-0.521 1.365 0 1.885 0.26 0.26 0.602 0.391 0.943 0.391s0.683-0.13 0.943-0.391l8.39-8.39 8.391 8.39c0.26 0.26 0.602 0.391 0.943 0.391s0.683-0.13 0.943-0.391c0.521-0.521 0.521-1.365 0-1.885l-8.39-8.391z"></path>
</symbol>

<symbol id="icon-delete" viewBox="0 0 32 32">
  <path class="path1" d="M28 4h-17.333l-10.667 12 10.667 12h17.333c2.209 0 4-1.791 4-4v-16c0-2.209-1.791-4-4-4zM29.333 24c0 0.735-0.598 1.333-1.333 1.333h-16.136l-8.296-9.333 8.296-9.333h16.136c0.735 0 1.333 0.598 1.333 1.333v16zM24.943 19.057c0.521 0.521 0.521 1.365 0 1.885-0.26 0.26-0.602 0.391-0.943 0.391s-0.682-0.13-0.943-0.391l-3.057-3.057-3.057 3.057c-0.26 0.26-0.602 0.391-0.943 0.391s-0.682-0.13-0.943-0.391c-0.521-0.521-0.521-1.365 0-1.885l3.057-3.057-3.057-3.057c-0.521-0.521-0.521-1.365 0-1.885s1.365-0.521 1.885 0l3.057 3.057 3.057-3.057c0.521-0.521 1.365-0.521 1.885 0s0.521 1.365 0 1.885l-3.057 3.057 3.057 3.057z"></path>
</symbol>

<symbol id="icon-disc" viewBox="0 0 32 32">
  <path class="path1" d="M16 1.333c-8.1 0-14.667 6.567-14.667 14.667s6.567 14.667 14.667 14.667c8.1 0 14.667-6.566 14.667-14.667s-6.566-14.667-14.667-14.667zM16 28c-6.627 0-12-5.373-12-12s5.373-12 12-12 12 5.373 12 12-5.373 12-12 12zM16 10.667c-2.945 0-5.333 2.388-5.333 5.333s2.388 5.333 5.333 5.333c2.946 0 5.333-2.388 5.333-5.333s-2.388-5.333-5.333-5.333zM16 18.667c-1.473 0-2.667-1.194-2.667-2.667s1.194-2.667 2.667-2.667 2.667 1.194 2.667 2.667-1.194 2.667-2.667 2.667z"></path>
</symbol>

<symbol id="icon-download" viewBox="0 0 32 32">
  <path class="path1" d="M29.333 9.333v18.667c0 2.209-1.791 4-4 4h-18.667c-2.209 0-4-1.791-4-4v-18.667c0-2.209 1.791-4 4-4h5.333v2.667h-5.333c-0.736 0-1.333 0.597-1.333 1.333v18.667c0 0.736 0.597 1.333 1.333 1.333h18.667c0.736 0 1.333-0.597 1.333-1.333v-18.667c0-0.736-0.597-1.333-1.333-1.333h-5.333v-2.667h5.333c2.209 0 4 1.791 4 4zM22.276 15.057c-0.521-0.521-1.365-0.521-1.885 0l-3.057 3.057v-16.781c0-0.736-0.597-1.333-1.333-1.333s-1.333 0.597-1.333 1.333v16.781l-3.057-3.057c-0.521-0.521-1.365-0.521-1.885 0s-0.521 1.365 0 1.885l5.333 5.333c0.25 0.25 0.589 0.391 0.943 0.391s0.693-0.141 0.943-0.391l5.333-5.333c0.521-0.52 0.521-1.365 0-1.885z"></path>
</symbol>

<symbol id="icon-drop" viewBox="0 0 32 32">
  <path class="path1" d="M24.485 10.181l-8.485-8.485-8.485 8.485c-4.687 4.687-4.687 12.284 0 16.971s12.285 4.687 16.971 0c4.687-4.686 4.687-12.284 0-16.971zM9.4 25.266c-3.645-3.645-3.645-9.554 0-13.199l6.6-6.6 6.6 6.6c3.645 3.645 3.645 9.554 0 13.199s-9.554 3.644-13.199 0z"></path>
</symbol>

<symbol id="icon-ellipsis" viewBox="0 0 32 32">
  <path class="path1" d="M5.333 12c-2.209 0-4 1.791-4 4s1.791 4 4 4 4-1.791 4-4-1.791-4-4-4zM5.333 17.333c-0.736 0-1.333-0.597-1.333-1.333s0.597-1.333 1.333-1.333 1.333 0.597 1.333 1.333-0.597 1.333-1.333 1.333zM16 12c-2.209 0-4 1.791-4 4s1.791 4 4 4 4-1.791 4-4-1.791-4-4-4zM16 17.333c-0.736 0-1.333-0.597-1.333-1.333s0.597-1.333 1.333-1.333 1.333 0.597 1.333 1.333-0.597 1.333-1.333 1.333zM26.667 12c-2.209 0-4 1.791-4 4s1.791 4 4 4 4-1.791 4-4-1.791-4-4-4zM26.667 17.333c-0.736 0-1.333-0.597-1.333-1.333s0.597-1.333 1.333-1.333 1.333 0.597 1.333 1.333-0.597 1.333-1.333 1.333z"></path>
</symbol>

<symbol id="icon-esc" viewBox="0 0 32 32">
  <path class="path1" d="M16 30.667c-1.859 0-3.671-0.343-5.385-1.021-1.656-0.654-3.166-1.596-4.488-2.8-2.687-2.448-4.363-5.779-4.721-9.381-0.073-0.733 0.462-1.386 1.195-1.459s1.386 0.462 1.458 1.195c0.292 2.945 1.664 5.67 3.863 7.673 1.082 0.986 2.317 1.757 3.672 2.291 1.401 0.553 2.884 0.834 4.406 0.834 1.62 0 3.192-0.317 4.671-0.942 0.711-0.301 1.396-0.673 2.038-1.106 0.636-0.43 1.234-0.923 1.777-1.466s1.036-1.141 1.466-1.777c0.433-0.641 0.805-1.327 1.106-2.038 0.626-1.479 0.943-3.051 0.943-4.671 0-1.522-0.281-3.004-0.834-4.406-0.535-1.354-1.306-2.59-2.291-3.672-2.003-2.199-4.728-3.571-7.673-3.863-0.733-0.073-1.268-0.726-1.195-1.458s0.726-1.268 1.459-1.195c3.602 0.358 6.933 2.035 9.381 4.721 1.204 1.322 2.146 2.832 2.8 4.488 0.678 1.715 1.021 3.527 1.021 5.386 0 1.979-0.388 3.9-1.153 5.709-0.368 0.869-0.823 1.708-1.353 2.492-0.524 0.776-1.127 1.507-1.79 2.17s-1.393 1.266-2.17 1.79c-0.784 0.53-1.622 0.985-2.492 1.353-1.809 0.765-3.73 1.153-5.709 1.153zM16.943 15.057l-11.057-11.057h4.781c0.736 0 1.333-0.597 1.333-1.333s-0.597-1.333-1.333-1.333h-8c-0.736 0-1.333 0.597-1.333 1.333v8c0 0.736 0.597 1.333 1.333 1.333s1.333-0.597 1.333-1.333v-4.781l11.057 11.057c0.26 0.26 0.602 0.391 0.943 0.391s0.682-0.13 0.943-0.391c0.521-0.52 0.521-1.365 0-1.885z"></path>
</symbol>

<symbol id="icon-expand" viewBox="0 0 32 32">
  <path class="path1" d="M26.667 1.333h-4c-0.736 0-1.333 0.597-1.333 1.333s0.597 1.333 1.333 1.333h4c0.737 0 1.333 0.597 1.333 1.333v4c0 0.736 0.597 1.333 1.333 1.333s1.333-0.597 1.333-1.333v-4c0-2.209-1.791-4-4-4zM9.333 1.333h-4c-2.209 0-4 1.791-4 4v4c0 0.736 0.597 1.333 1.333 1.333s1.333-0.597 1.333-1.333v-4c0-0.736 0.597-1.333 1.333-1.333h4c0.736 0 1.333-0.597 1.333-1.333s-0.597-1.334-1.333-1.334zM29.333 21.333c-0.736 0-1.333 0.597-1.333 1.333v4c0 0.737-0.597 1.333-1.333 1.333h-4c-0.736 0-1.333 0.597-1.333 1.333s0.597 1.333 1.333 1.333h4c2.209 0 4-1.791 4-4v-4c0-0.736-0.597-1.333-1.333-1.333zM9.333 28h-4c-0.736 0-1.333-0.597-1.333-1.333v-4c0-0.736-0.597-1.333-1.333-1.333s-1.333 0.597-1.333 1.333v4c0 2.209 1.791 4 4 4h4c0.736 0 1.333-0.597 1.333-1.333s-0.597-1.333-1.334-1.333z"></path>
</symbol>

<symbol id="icon-eye" viewBox="0 0 32 32">
  <path class="path1" d="M16 4c-10.667 0-16 12.055-16 12.055s5.333 11.945 16 11.945 16-12 16-12-5.333-12-16-12zM16 25.333c-7.049 0-11.499-6.627-12.999-9.284 1.499-2.682 5.95-9.383 12.999-9.383 7.050 0 11.501 6.666 12.999 9.333-1.501 2.672-5.951 9.333-12.999 9.333zM16 10.667c-2.945 0-5.333 2.388-5.333 5.333s2.388 5.333 5.333 5.333c2.946 0 5.333-2.388 5.333-5.333s-2.388-5.333-5.333-5.333zM16 18.667c-1.47 0-2.667-1.196-2.667-2.667s1.196-2.667 2.667-2.667 2.667 1.196 2.667 2.667-1.196 2.667-2.667 2.667z"></path>
</symbol>

<symbol id="icon-fast-forward" viewBox="0 0 32 32">
  <path class="path1" d="M13.724 26.276c-0.521-0.521-0.521-1.365 0-1.886l8.391-8.391-8.391-8.39c-0.521-0.521-0.521-1.365 0-1.886s1.365-0.521 1.886 0l9.333 9.333c0.521 0.521 0.521 1.365 0 1.886l-9.333 9.333c-0.26 0.26-0.602 0.39-0.943 0.39s-0.683-0.13-0.943-0.39zM6.667 26.667c0.341 0 0.682-0.13 0.943-0.39l9.333-9.333c0.521-0.521 0.521-1.365 0-1.886l-9.333-9.333c-0.521-0.521-1.365-0.521-1.886 0s-0.521 1.365 0 1.886l8.391 8.391-8.39 8.391c-0.521 0.521-0.521 1.365 0 1.886 0.26 0.26 0.602 0.39 0.943 0.39z"></path>
</symbol>

<symbol id="icon-file-add" viewBox="0 0 32 32">
  <path class="path1" d="M21.333 20c0 0.736-0.597 1.333-1.333 1.333h-2.667v2.667c0 0.736-0.597 1.333-1.333 1.333s-1.333-0.597-1.333-1.333v-2.667h-2.667c-0.736 0-1.333-0.597-1.333-1.333s0.597-1.333 1.333-1.333h2.667v-2.667c0-0.736 0.597-1.333 1.333-1.333s1.333 0.597 1.333 1.333v2.667h2.667c0.736 0 1.333 0.597 1.333 1.333zM29.333 9.333v18.667c0 2.209-1.791 4-4 4h-18.667c-2.209 0-4-1.791-4-4v-24c0-2.209 1.791-4 4-4h13.333l9.333 9.333zM20 9.333h5.562l-5.562-5.562v5.562zM26.667 28v-16h-9.333v-9.333h-10.667c-0.48 0-0.797 0.245-0.943 0.391s-0.391 0.462-0.391 0.943v24c0 0.48 0.245 0.797 0.391 0.943s0.462 0.391 0.943 0.391h18.667c0.48 0 0.797-0.245 0.943-0.391s0.391-0.462 0.391-0.943z"></path>
</symbol>

<symbol id="icon-file-subtract" viewBox="0 0 32 32">
  <path class="path1" d="M21.333 20c0 0.736-0.597 1.333-1.333 1.333h-8c-0.736 0-1.333-0.597-1.333-1.333s0.597-1.333 1.333-1.333h8c0.736 0 1.333 0.597 1.333 1.333zM29.333 9.333v18.667c0 2.209-1.791 4-4 4h-18.667c-2.209 0-4-1.791-4-4v-24c0-2.209 1.791-4 4-4h13.333l9.333 9.333zM20 9.333h5.562l-5.562-5.562v5.562zM26.667 28v-16h-9.333v-9.333h-10.667c-0.48 0-0.797 0.245-0.943 0.391s-0.391 0.462-0.391 0.943v24c0 0.48 0.245 0.797 0.391 0.943s0.462 0.391 0.943 0.391h18.667c0.48 0 0.797-0.245 0.943-0.391s0.391-0.462 0.391-0.943z"></path>
</symbol>

<symbol id="icon-file" viewBox="0 0 32 32">
  <path class="path1" d="M29.333 9.333v18.667c0 2.209-1.791 4-4 4h-18.667c-2.209 0-4-1.791-4-4v-24c0-2.209 1.791-4 4-4h13.333l9.333 9.333zM20 9.333h5.562l-5.562-5.562v5.562zM26.667 28v-16h-9.333v-9.333h-10.667c-0.48 0-0.797 0.245-0.943 0.39s-0.39 0.463-0.39 0.943v24c0 0.48 0.245 0.797 0.39 0.943s0.463 0.391 0.943 0.391h18.667c0.48 0 0.797-0.245 0.943-0.391s0.391-0.462 0.391-0.943z"></path>
</symbol>

<symbol id="icon-flag" viewBox="0 0 32 32">
  <path class="path1" d="M21.333 4c-4 0-8-2.667-12-2.667s-6.667 1.333-6.667 1.333v26.667c0 0.736 0.597 1.333 1.333 1.333s1.333-0.597 1.333-1.333v-8.882c1.076-0.248 2.436-0.452 4-0.452 4 0 8 2.667 12 2.667s6.667-1.333 6.667-1.333v-18.667c0 0-2.667 1.333-6.667 1.333zM25.333 19.464c-1.299 0.361-2.652 0.536-4 0.536-1.949 0-3.852-0.766-5.675-1.369-2.048-0.678-4.149-1.298-6.325-1.298-1.342 0-2.684 0.131-4 0.392v-13.189c1.299-0.361 2.652-0.536 4-0.536 1.949 0 3.852 0.766 5.675 1.369 2.048 0.678 4.149 1.298 6.325 1.298 1.342 0 2.684-0.131 4-0.392v13.189z"></path>
</symbol>

<symbol id="icon-folder" viewBox="0 0 32 32">
  <path class="path1" d="M12.471 8.146l0.768 1.187h13.427c0.735 0 1.333 0.598 1.333 1.333v14.667c0 0.735-0.598 1.333-1.333 1.333h-21.333c-0.735 0-1.333-0.598-1.333-1.333v-18.667c0-0.735 0.598-1.333 1.333-1.333h5.333l1.805 2.813zM12 2.667h-6.667c-2.21 0-4 1.79-4 4v18.667c0 2.21 1.79 4 4 4h21.333c2.21 0 4-1.79 4-4v-14.667c0-2.21-1.79-4-4-4h-12l-2.667-4z"></path>
</symbol>

<symbol id="icon-globe" viewBox="0 0 32 32">
  <path class="path1" d="M16.563 1.343c-0.186-0.006-0.373-0.010-0.563-0.010s-0.377 0.003-0.563 0.010c-7.84 0.297-14.104 6.747-14.104 14.657s6.263 14.36 14.104 14.657c0.186 0.006 0.373 0.010 0.563 0.010s0.377-0.003 0.563-0.010c7.84-0.297 14.104-6.747 14.104-14.657s-6.263-14.36-14.104-14.657zM27.923 14.667h-5.303c-0.303-4.467-2.090-8.030-3.58-10.28 4.737 1.24 8.337 5.3 8.883 10.28zM16.003 4.727c1.31 1.707 3.567 5.267 3.943 9.94h-7.893c0.377-4.653 2.64-8.227 3.95-9.94zM19.947 17.333c-0.377 4.653-2.637 8.227-3.95 9.94-1.31-1.707-3.567-5.267-3.943-9.94h7.893zM12.96 4.387c-1.49 2.25-3.277 5.813-3.58 10.28h-5.304c0.547-4.98 4.147-9.040 8.883-10.28zM4.077 17.333h5.303c0.303 4.464 2.087 8.027 3.577 10.277-4.737-1.237-8.333-5.297-8.88-10.277zM19.043 27.61c1.49-2.25 3.273-5.813 3.576-10.277h5.303c-0.546 4.98-4.143 9.040-8.88 10.277z"></path>
</symbol>

<symbol id="icon-grid-2" viewBox="0 0 32 32">
  <path class="path1" d="M26.667 1.333h-21.333c-2.21 0-4 1.79-4 4v21.333c0 2.21 1.79 4 4 4h21.333c2.21 0 4-1.79 4-4v-21.333c0-2.21-1.79-4-4-4zM28 5.333v9.333h-10.667v-10.667h9.333c0.737 0 1.333 0.597 1.333 1.333zM5.333 4h9.333v10.667h-10.667v-9.333c0-0.737 0.597-1.333 1.333-1.333zM4 26.667v-9.333h10.667v10.667h-9.333c-0.737 0-1.333-0.597-1.333-1.333zM26.667 28h-9.333v-10.667h10.667v9.333c0 0.737-0.597 1.333-1.333 1.333z"></path>
</symbol>

<symbol id="icon-grid" viewBox="0 0 32 32">
  <path class="path1" d="M10.667 1.333h-5.333c-2.21 0-4 1.79-4 4v5.333c0 2.21 1.79 4 4 4h5.333c2.21 0 4-1.79 4-4v-5.333c0-2.21-1.79-4-4-4zM12 10.667c0 0.737-0.597 1.333-1.333 1.333h-5.333c-0.737 0-1.333-0.597-1.333-1.333v-5.333c0-0.737 0.597-1.333 1.333-1.333h5.333c0.737 0 1.333 0.597 1.333 1.333v5.333zM26.667 1.333h-5.333c-2.21 0-4 1.79-4 4v5.333c0 2.21 1.79 4 4 4h5.333c2.21 0 4-1.79 4-4v-5.333c0-2.21-1.79-4-4-4zM28 10.667c0 0.737-0.597 1.333-1.333 1.333h-5.333c-0.737 0-1.333-0.597-1.333-1.333v-5.333c0-0.737 0.597-1.333 1.333-1.333h5.333c0.737 0 1.333 0.597 1.333 1.333v5.333zM26.667 17.333h-5.333c-2.21 0-4 1.79-4 4v5.333c0 2.21 1.79 4 4 4h5.333c2.21 0 4-1.79 4-4v-5.333c0-2.21-1.79-4-4-4zM28 26.667c0 0.737-0.597 1.333-1.333 1.333h-5.333c-0.737 0-1.333-0.597-1.333-1.333v-5.333c0-0.737 0.597-1.333 1.333-1.333h5.333c0.737 0 1.333 0.597 1.333 1.333v5.333zM10.667 17.333h-5.333c-2.21 0-4 1.79-4 4v5.333c0 2.21 1.79 4 4 4h5.333c2.21 0 4-1.79 4-4v-5.333c0-2.21-1.79-4-4-4zM12 26.667c0 0.737-0.597 1.333-1.333 1.333h-5.333c-0.737 0-1.333-0.597-1.333-1.333v-5.333c0-0.737 0.597-1.333 1.333-1.333h5.333c0.737 0 1.333 0.597 1.333 1.333v5.333z"></path>
</symbol>

<symbol id="icon-head" viewBox="0 0 32 32">
  <path class="path1" d="M21.557 17.752c1.506-1.454 2.443-3.494 2.443-5.752v-4c0-4.418-3.582-8-8-8s-8 3.582-8 8v4c0 2.258 0.937 4.296 2.442 5.751-6.096 0.95-10.442 3.412-10.442 6.28v2.635c0 2.21 1.79 4 4 4h24c2.21 0 4-1.79 4-4v-2.625c0-2.868-4.346-5.338-10.443-6.29zM10.667 12v-4c0-2.945 2.388-5.333 5.333-5.333s5.333 2.388 5.333 5.333v4c0 2.945-2.388 5.333-5.333 5.333s-5.333-2.388-5.333-5.333zM29.333 26.667c0 0.735-0.598 1.333-1.333 1.333h-24c-0.735 0-1.333-0.598-1.333-1.333v-2.635c0-0.311 0.768-1.314 3.051-2.271 2.668-1.119 6.416-1.761 10.283-1.761 3.865 0 7.612 0.643 10.281 1.765 2.284 0.96 3.053 1.965 3.053 2.277v2.625z"></path>
</symbol>

<symbol id="icon-heart" viewBox="0 0 32 32">
  <path class="path1" d="M29.199 4.821c-3.124-3.124-8.189-3.124-11.313 0l-1.886 1.886-1.886-1.885c-3.124-3.124-8.189-3.124-11.313 0s-3.124 8.189 0 11.313l13.199 13.198 13.199-13.198c3.125-3.124 3.125-8.19 0-11.314zM23.542 18.020l-7.542 7.542-11.313-11.313c-2.083-2.083-2.083-5.46 0-7.543s5.46-2.083 7.542 0l3.771 3.771 3.771-3.771c2.083-2.083 5.46-2.083 7.542 0s2.083 5.46 0 7.543l-3.771 3.771z"></path>
</symbol>

<symbol id="icon-help" viewBox="0 0 32 32">
  <path class="path1" d="M26.371 5.629c-5.728-5.728-15.014-5.728-20.742 0s-5.728 15.014 0 20.742 15.014 5.728 20.742 0c5.728-5.728 5.728-15.014 0-20.742zM23.491 6.624l-3.813 3.814c-2.222-1.472-5.132-1.472-7.354 0l-3.814-3.814c4.368-3.498 10.614-3.498 14.981 0zM20 16c0 2.209-1.791 4-4 4s-4-1.791-4-4c0-2.209 1.791-4 4-4s4 1.791 4 4zM6.624 8.51l3.814 3.814c-1.472 2.222-1.472 5.132 0 7.354l-3.814 3.813c-3.498-4.368-3.498-10.613 0-14.981zM8.509 25.377l3.814-3.814c2.222 1.472 5.132 1.472 7.354 0l3.813 3.814c-4.367 3.498-10.613 3.498-14.981 0zM25.376 23.491l-3.814-3.813c1.472-2.222 1.472-5.132 0-7.354l3.814-3.814c3.498 4.368 3.498 10.613 0 14.981z"></path>
</symbol>

<symbol id="icon-image" viewBox="0 0 32 32">
  <path class="path1" d="M26.667 1.333h-21.333c-2.209 0-4 1.791-4 4v21.333c0 2.209 1.791 4 4 4h21.333c2.209 0 4-1.791 4-4v-21.333c0-2.209-1.791-4-4-4zM28 26.667c0 0.737-0.597 1.333-1.333 1.333h-16.781l11.448-11.448 6.667 6.666v3.448zM28 19.448l-6.667-6.667-15.219 15.219h-0.781c-0.737 0-1.333-0.597-1.333-1.333v-21.333c0-0.737 0.597-1.333 1.333-1.333h21.333c0.737 0 1.333 0.597 1.333 1.333v14.115zM10.667 6.667c-2.209 0-4 1.791-4 4s1.791 4 4 4 4-1.791 4-4-1.791-4-4-4zM10.667 12c-0.736 0-1.333-0.597-1.333-1.333s0.597-1.333 1.333-1.333 1.333 0.597 1.333 1.333-0.597 1.333-1.333 1.333z"></path>
</symbol>

<symbol id="icon-inbox" viewBox="0 0 32 32">
  <path class="path1" d="M8.391 15.61c-0.521-0.521-0.521-1.365 0-1.886s1.365-0.521 1.886 0l4.39 4.391v-15.448c0-0.736 0.597-1.333 1.333-1.333s1.333 0.597 1.333 1.333v15.448l4.391-4.39c0.521-0.521 1.365-0.521 1.885 0s0.521 1.365 0 1.886l-6.667 6.667c-0.26 0.26-0.602 0.391-0.943 0.391s-0.682-0.131-0.943-0.391l-6.666-6.667zM29.333 20c-0.736 0-1.333 0.597-1.333 1.333v5.334c0 0.735-0.582 1.333-1.298 1.333h-21.368c-0.735 0-1.333-0.598-1.333-1.333v-5.334c0-0.736-0.597-1.333-1.333-1.333s-1.333 0.597-1.333 1.333v5.334c0 0.539 0.106 1.063 0.315 1.557 0.201 0.477 0.49 0.904 0.857 1.271s0.795 0.655 1.271 0.856c0.494 0.21 1.018 0.315 1.557 0.315h21.368c0.537 0 1.058-0.107 1.549-0.317 0.473-0.202 0.897-0.492 1.26-0.86 0.363-0.367 0.647-0.795 0.845-1.271 0.206-0.492 0.31-1.014 0.31-1.551v-5.334c0-0.736-0.597-1.333-1.333-1.333z"></path>
</symbol>

<symbol id="icon-layers" viewBox="0 0 32 32">
  <path class="path1" d="M16 25.672l-13-6.5-3 1.5 16 8 16-8-3-1.5-13 6.5zM16 20.010l-13-6.5-3 1.5 16 8 16-8-3-1.5-13 6.5zM32 9.333l-16-8-16 8 16 8 16-8zM16 4.314l10.037 5.019-10.037 5.019-10.037-5.019 10.037-5.019z"></path>
</symbol>

<symbol id="icon-layout" viewBox="0 0 32 32">
  <path class="path1" d="M26.667 1.333h-21.333c-2.209 0-4 1.791-4 4v21.333c0 2.209 1.791 4 4 4h21.333c2.209 0 4-1.791 4-4v-21.333c0-2.209-1.791-4-4-4zM5.333 4h21.333c0.736 0 1.333 0.597 1.333 1.333v4h-24v-4c0-0.736 0.597-1.333 1.333-1.333zM4 26.667v-14.667h6.667v16h-5.333c-0.736 0-1.333-0.597-1.333-1.333zM26.667 28h-13.333v-16h14.667v14.667c0 0.736-0.597 1.333-1.333 1.333z"></path>
</symbol>

<symbol id="icon-link" viewBox="0 0 32 32">
  <path class="path1" d="M18.667 24c0.217 0 0.433-0.007 0.647-0.020-0.104 0.117-0.212 0.231-0.324 0.343l-4 4c-3.124 3.124-8.19 3.124-11.314 0s-3.124-8.189 0-11.314l4-4c0.112-0.112 0.226-0.22 0.343-0.324 2.452-2.183 5.925-2.596 8.763-1.24 0.798 0.382 1.547 0.903 2.208 1.564s1.182 1.41 1.564 2.208c-0.482 0.484-1.15 0.783-1.887 0.783-0.272 0-0.535-0.041-0.783-0.117-0.215-0.352-0.475-0.684-0.779-0.988s-0.637-0.564-0.988-0.78c-2.054-1.259-4.776-0.999-6.555 0.78l-4 4c-2.083 2.083-2.083 5.46 0 7.543s5.46 2.083 7.543 0l2.799-2.799c0.881 0.235 1.808 0.361 2.763 0.361zM28.324 3.676c-3.124-3.124-8.189-3.124-11.314 0l-4 4c-0.112 0.112-0.22 0.226-0.324 0.343 0.214-0.013 0.43-0.019 0.647-0.019 0.955 0 1.882 0.126 2.763 0.361l2.799-2.799c2.083-2.083 5.46-2.083 7.543 0s2.083 5.46 0 7.543l-4 4c-1.779 1.778-4.501 2.038-6.555 0.779-0.352-0.215-0.683-0.475-0.988-0.779s-0.564-0.637-0.779-0.988c-0.247-0.076-0.51-0.117-0.782-0.117-0.737 0-1.405 0.299-1.887 0.783 0.382 0.798 0.903 1.546 1.564 2.208s1.409 1.182 2.207 1.564c2.839 1.356 6.311 0.943 8.763-1.24 0.117-0.104 0.231-0.212 0.343-0.324l4-4c3.125-3.124 3.125-8.189 0-11.314z"></path>
</symbol>

<symbol id="icon-loader" viewBox="0 0 32 32">
  <path class="path1" d="M9.333 16c0-0.736-0.597-1.333-1.333-1.333h-5.333c-0.737 0-1.333 0.597-1.333 1.333s0.597 1.333 1.333 1.333h5.333c0.736 0 1.333-0.597 1.333-1.333zM29.333 14.667h-5.333c-0.736 0-1.333 0.597-1.333 1.333s0.597 1.333 1.333 1.333h5.333c0.736 0 1.333-0.597 1.333-1.333s-0.597-1.333-1.333-1.333zM16 1.333c-0.736 0-1.333 0.597-1.333 1.333v5.333c0 0.736 0.597 1.333 1.333 1.333s1.333-0.597 1.333-1.333v-5.333c0-0.736-0.597-1.333-1.333-1.333zM16 22.667c-0.736 0-1.333 0.597-1.333 1.333v5.333c0 0.736 0.597 1.333 1.333 1.333s1.333-0.597 1.333-1.333v-5.333c0-0.736-0.597-1.333-1.333-1.333zM9.4 20.714l-3.77 3.771c-0.521 0.521-0.521 1.365 0 1.886s1.365 0.521 1.885 0l3.771-3.771c0.521-0.52 0.521-1.365 0-1.885s-1.365-0.521-1.886 0zM22.6 11.286l3.771-3.771c0.521-0.521 0.521-1.365 0-1.886s-1.365-0.521-1.885 0l-3.772 3.771c-0.521 0.521-0.521 1.365 0 1.886s1.364 0.521 1.886 0zM7.515 5.629c-0.52-0.521-1.365-0.521-1.885 0s-0.521 1.365 0 1.886l3.771 3.771c0.521 0.521 1.365 0.521 1.886 0s0.521-1.365 0-1.886l-3.771-3.771zM22.6 20.714c-0.521-0.521-1.365-0.521-1.886 0s-0.521 1.365 0 1.885l3.771 3.771c0.521 0.521 1.365 0.521 1.885 0s0.52-1.365 0-1.886l-3.77-3.771z"></path>
</symbol>

<symbol id="icon-location-2" viewBox="0 0 32 32">
  <path class="path1" d="M16 1.333c-8.1 0-14.667 6.567-14.667 14.667s6.567 14.667 14.667 14.667c8.1 0 14.667-6.566 14.667-14.667s-6.566-14.667-14.667-14.667zM17.333 27.924v-3.924c0-0.736-0.597-1.333-1.333-1.333s-1.333 0.597-1.333 1.333v3.924c-5.562-0.615-9.976-5.029-10.591-10.591h3.924c0.736 0 1.333-0.597 1.333-1.333s-0.597-1.333-1.333-1.333h-3.924c0.615-5.562 5.029-9.976 10.591-10.591v3.924c0 0.736 0.597 1.333 1.333 1.333s1.333-0.597 1.333-1.333v-3.924c5.562 0.615 9.976 5.029 10.591 10.591h-3.924c-0.736 0-1.333 0.597-1.333 1.333s0.597 1.333 1.333 1.333h3.924c-0.615 5.562-5.029 9.976-10.591 10.591z"></path>
</symbol>

<symbol id="icon-location" viewBox="0 0 32 32">
  <path class="path1" d="M26.584 5.415l-8.729 19.045-2.381-7.935-7.935-2.381 19.045-8.729zM32 0l-32 14.667 13.333 4 4 13.333 14.667-32z"></path>
</symbol>

<symbol id="icon-lock" viewBox="0 0 32 32">
  <path class="path1" d="M26.667 14.667h-2.667v-5.333c0-4.418-3.582-8-8-8s-8 3.582-8 8v5.333h-2.667c-2.21 0-4 1.79-4 4v8c0 2.21 1.79 4 4 4h21.333c2.21 0 4-1.79 4-4v-8c0-2.21-1.79-4-4-4zM10.667 9.333c0-2.945 2.388-5.333 5.333-5.333s5.333 2.388 5.333 5.333v5.333h-10.667v-5.333zM28 26.667c0 0.737-0.597 1.333-1.333 1.333h-21.333c-0.737 0-1.333-0.597-1.333-1.333v-8c0-0.737 0.597-1.333 1.333-1.333h21.333c0.737 0 1.333 0.597 1.333 1.333v8z"></path>
</symbol>

<symbol id="icon-mail" viewBox="0 0 32 32">
  <path class="path1" d="M26.667 4h-21.333c-2.209 0-4 1.791-4 4v16c0 2.209 1.791 4 4 4h21.333c2.209 0 4-1.791 4-4v-16c0-2.209-1.791-4-4-4zM26.667 6.667c0.154 0 0.302 0.026 0.439 0.074l-11.106 8.885-11.106-8.885c0.137-0.048 0.285-0.074 0.439-0.074h21.333zM26.667 25.333h-21.333c-0.736 0-1.333-0.597-1.333-1.333v-14.559l11.167 8.934c0.243 0.195 0.538 0.292 0.833 0.292s0.59-0.097 0.833-0.292l11.167-8.934v14.559c0 0.736-0.597 1.333-1.333 1.333z"></path>
</symbol>

<symbol id="icon-map" viewBox="0 0 32 32">
  <path class="path1" d="M21.333 6.667l-10.639-6.667-10.694 6.677v25.323l10.667-6.667 10.667 6.667 10.667-6.667v-25.333l-10.667 6.667zM2.667 27.189v-19.033l6.667-4.163v19.028l-0.080 0.050-6.587 4.118zM12 23.021v-19.056l8 5.013v19.044l-8-5.001zM29.333 23.855l-6.667 4.167v-19.043l6.667-4.167v19.044z"></path>
</symbol>

<symbol id="icon-marquee-add" viewBox="0 0 32 32">
  <path class="path1" d="M9.333 2.667c0 0.737-0.597 1.333-1.333 1.333h-2.667c-0.737 0-1.333 0.597-1.333 1.333v2.667c0 0.737-0.597 1.333-1.333 1.333s-1.333-0.597-1.333-1.333v-2.667c0-2.21 1.79-4 4-4h2.667c0.737 0 1.333 0.597 1.333 1.333zM4 13.333v5.333c0 0.737-0.597 1.333-1.333 1.333s-1.333-0.597-1.333-1.333v-5.333c0-0.737 0.597-1.333 1.333-1.333s1.333 0.597 1.333 1.333zM9.333 29.333c0 0.737-0.597 1.333-1.333 1.333h-2.667c-2.21 0-4-1.79-4-4v-2.667c0-0.737 0.597-1.333 1.333-1.333s1.333 0.597 1.333 1.333v2.667c0 0.737 0.597 1.333 1.333 1.333h2.667c0.737 0 1.333 0.597 1.333 1.333zM20 29.333c0 0.737-0.597 1.333-1.333 1.333h-5.333c-0.737 0-1.333-0.597-1.333-1.333s0.597-1.333 1.333-1.333h5.333c0.737 0 1.333 0.597 1.333 1.333zM30.667 24v2.667c0 2.21-1.79 4-4 4h-2.667c-0.737 0-1.333-0.597-1.333-1.333s0.597-1.333 1.333-1.333h2.667c0.737 0 1.333-0.597 1.333-1.333v-2.667c0-0.737 0.597-1.333 1.333-1.333s1.333 0.597 1.333 1.333zM30.667 13.333v5.333c0 0.737-0.597 1.333-1.333 1.333s-1.333-0.597-1.333-1.333v-5.333c0-0.737 0.597-1.333 1.333-1.333s1.333 0.597 1.333 1.333zM30.667 5.333v2.667c0 0.737-0.597 1.333-1.333 1.333s-1.333-0.597-1.333-1.333v-2.667c0-0.737-0.597-1.333-1.333-1.333h-2.667c-0.737 0-1.333-0.597-1.333-1.333s0.597-1.333 1.333-1.333h2.667c2.21 0 4 1.79 4 4zM20 2.667c0 0.737-0.597 1.333-1.333 1.333h-5.333c-0.737 0-1.333-0.597-1.333-1.333s0.597-1.333 1.333-1.333h5.333c0.737 0 1.333 0.597 1.333 1.333zM21.333 14.667h-4v-4c0-0.736-0.597-1.333-1.333-1.333s-1.333 0.597-1.333 1.333v4h-4c-0.736 0-1.333 0.597-1.333 1.333s0.597 1.333 1.333 1.333h4v4c0 0.736 0.597 1.333 1.333 1.333s1.333-0.597 1.333-1.333v-4h4c0.736 0 1.333-0.597 1.333-1.333s-0.597-1.333-1.333-1.333z"></path>
</symbol>

<symbol id="icon-marquee-subtract" viewBox="0 0 32 32">
  <path class="path1" d="M9.333 2.667c0 0.737-0.597 1.333-1.333 1.333h-2.667c-0.737 0-1.333 0.597-1.333 1.333v2.667c0 0.737-0.597 1.333-1.333 1.333s-1.333-0.597-1.333-1.333v-2.667c0-2.21 1.79-4 4-4h2.667c0.737 0 1.333 0.597 1.333 1.333zM4 13.333v5.333c0 0.737-0.597 1.333-1.333 1.333s-1.333-0.597-1.333-1.333v-5.333c0-0.737 0.597-1.333 1.333-1.333s1.333 0.597 1.333 1.333zM9.333 29.333c0 0.737-0.597 1.333-1.333 1.333h-2.667c-2.21 0-4-1.79-4-4v-2.667c0-0.737 0.597-1.333 1.333-1.333s1.333 0.597 1.333 1.333v2.667c0 0.737 0.597 1.333 1.333 1.333h2.667c0.737 0 1.333 0.597 1.333 1.333zM20 29.333c0 0.737-0.597 1.333-1.333 1.333h-5.333c-0.737 0-1.333-0.597-1.333-1.333s0.597-1.333 1.333-1.333h5.333c0.737 0 1.333 0.597 1.333 1.333zM30.667 24v2.667c0 2.21-1.79 4-4 4h-2.667c-0.737 0-1.333-0.597-1.333-1.333s0.597-1.333 1.333-1.333h2.667c0.737 0 1.333-0.597 1.333-1.333v-2.667c0-0.737 0.597-1.333 1.333-1.333s1.333 0.597 1.333 1.333zM30.667 13.333v5.333c0 0.737-0.597 1.333-1.333 1.333s-1.333-0.597-1.333-1.333v-5.333c0-0.737 0.597-1.333 1.333-1.333s1.333 0.597 1.333 1.333zM30.667 5.333v2.667c0 0.737-0.597 1.333-1.333 1.333s-1.333-0.597-1.333-1.333v-2.667c0-0.737-0.597-1.333-1.333-1.333h-2.667c-0.737 0-1.333-0.597-1.333-1.333s0.597-1.333 1.333-1.333h2.667c2.21 0 4 1.79 4 4zM20 2.667c0 0.737-0.597 1.333-1.333 1.333h-5.333c-0.737 0-1.333-0.597-1.333-1.333s0.597-1.333 1.333-1.333h5.333c0.737 0 1.333 0.597 1.333 1.333zM21.333 14.667h-10.667c-0.736 0-1.333 0.597-1.333 1.333s0.597 1.333 1.333 1.333h10.667c0.736 0 1.333-0.597 1.333-1.333s-0.597-1.333-1.333-1.333z"></path>
</symbol>

<symbol id="icon-marquee" viewBox="0 0 32 32">
  <path class="path1" d="M9.333 2.667c0 0.737-0.597 1.333-1.333 1.333h-2.667c-0.737 0-1.333 0.597-1.333 1.333v2.667c0 0.737-0.597 1.333-1.333 1.333s-1.333-0.597-1.333-1.333v-2.667c0-2.21 1.79-4 4-4h2.667c0.737 0 1.333 0.597 1.333 1.333zM4 13.333v5.333c0 0.737-0.597 1.333-1.333 1.333s-1.333-0.597-1.333-1.333v-5.333c0-0.737 0.597-1.333 1.333-1.333s1.333 0.597 1.333 1.333zM9.333 29.333c0 0.737-0.597 1.333-1.333 1.333h-2.667c-2.21 0-4-1.79-4-4v-2.667c0-0.737 0.597-1.333 1.333-1.333s1.333 0.597 1.333 1.333v2.667c0 0.737 0.597 1.333 1.333 1.333h2.667c0.737 0 1.333 0.597 1.333 1.333zM20 29.333c0 0.737-0.597 1.333-1.333 1.333h-5.333c-0.737 0-1.333-0.597-1.333-1.333s0.597-1.333 1.333-1.333h5.333c0.737 0 1.333 0.597 1.333 1.333zM30.667 24v2.667c0 2.21-1.79 4-4 4h-2.667c-0.737 0-1.333-0.597-1.333-1.333s0.597-1.333 1.333-1.333h2.667c0.737 0 1.333-0.597 1.333-1.333v-2.667c0-0.737 0.597-1.333 1.333-1.333s1.333 0.597 1.333 1.333zM30.667 13.333v5.333c0 0.737-0.597 1.333-1.333 1.333s-1.333-0.597-1.333-1.333v-5.333c0-0.737 0.597-1.333 1.333-1.333s1.333 0.597 1.333 1.333zM30.667 5.333v2.667c0 0.737-0.597 1.333-1.333 1.333s-1.333-0.597-1.333-1.333v-2.667c0-0.737-0.597-1.333-1.333-1.333h-2.667c-0.737 0-1.333-0.597-1.333-1.333s0.597-1.333 1.333-1.333h2.667c2.21 0 4 1.79 4 4zM20 2.667c0 0.737-0.597 1.333-1.333 1.333h-5.333c-0.737 0-1.333-0.597-1.333-1.333s0.597-1.333 1.333-1.333h5.333c0.737 0 1.333 0.597 1.333 1.333z"></path>
</symbol>

<symbol id="icon-maximize" viewBox="0 0 32 32">
  <path class="path1" d="M5.887 4h6.113c0.737 0 1.333-0.597 1.333-1.333s-0.597-1.333-1.333-1.333h-9.333c-0.737 0-1.333 0.597-1.333 1.333v9.333c0 0.737 0.597 1.333 1.333 1.333s1.333-0.597 1.333-1.333v-6.113l8.38 8.38c0.523 0.52 1.367 0.52 1.886 0s0.52-1.367 0-1.886l-8.38-8.38zM29.333 18.656c-0.737 0-1.333 0.597-1.333 1.333v6.113l-8.385-8.38c-0.523-0.52-1.372-0.52-1.892 0s-0.52 1.372 0 1.892l8.38 8.385h-6.113c-0.737 0-1.333 0.597-1.333 1.333s0.596 1.333 1.333 1.333h9.333c0.736 0 1.343-0.607 1.343-1.344v-9.333c0-0.737-0.597-1.333-1.333-1.333z"></path>
</symbol>

<symbol id="icon-menu" viewBox="0 0 32 32">
  <path class="path1" d="M4 9.333h24c0.736 0 1.333-0.597 1.333-1.333s-0.597-1.333-1.333-1.333h-24c-0.736 0-1.333 0.597-1.333 1.333s0.597 1.333 1.333 1.333zM28 14.667h-24c-0.736 0-1.333 0.597-1.333 1.333s0.597 1.333 1.333 1.333h24c0.736 0 1.333-0.597 1.333-1.333s-0.597-1.333-1.333-1.333zM28 22.667h-24c-0.736 0-1.333 0.597-1.333 1.333s0.597 1.333 1.333 1.333h24c0.736 0 1.333-0.597 1.333-1.333s-0.597-1.333-1.333-1.333z"></path>
</symbol>

<symbol id="icon-microphone" viewBox="0 0 32 32">
  <path class="path1" d="M26.667 13.333v2.667c0 5.439-4.072 9.928-9.333 10.584v2.749h4c0.736 0 1.333 0.597 1.333 1.333s-0.597 1.333-1.333 1.333h-10.667c-0.736 0-1.333-0.597-1.333-1.333s0.597-1.333 1.333-1.333h4v-2.749c-5.262-0.656-9.333-5.145-9.333-10.584v-2.667c0-0.736 0.597-1.333 1.333-1.333s1.333 0.597 1.333 1.333v2.667c0 4.418 3.582 8 8 8s8-3.582 8-8v-2.667c0-0.736 0.597-1.333 1.333-1.333s1.333 0.597 1.333 1.333zM16 0c-2.946 0-5.333 2.388-5.333 5.333v10.667c0 2.946 2.388 5.333 5.333 5.333s5.333-2.388 5.333-5.333v-10.667c0-2.946-2.388-5.333-5.333-5.333zM16 18.667c-1.473 0-2.667-1.194-2.667-2.667v-10.667c0-1.473 1.194-2.667 2.667-2.667s2.667 1.194 2.667 2.667v10.667c0 1.473-1.194 2.667-2.667 2.667z"></path>
</symbol>

<symbol id="icon-minimize" viewBox="0 0 32 32">
  <path class="path1" d="M13.334 2.656c-0.737 0-1.333 0.596-1.333 1.333v6.114l-8.385-8.381c-0.523-0.52-1.372-0.52-1.892 0s-0.521 1.372 0 1.892l8.38 8.385h-6.113c-0.737 0-1.333 0.597-1.333 1.333s0.596 1.333 1.333 1.333h9.333c0.736 0 1.343-0.607 1.343-1.343v-9.334c0-0.737-0.597-1.333-1.333-1.333zM30.276 28.385l-8.38-8.385h6.114c0.736 0 1.333-0.597 1.333-1.333s-0.597-1.333-1.333-1.333h-9.334c-0.737 0-1.342 0.607-1.342 1.344v9.333c0 0.737 0.597 1.333 1.333 1.333s1.333-0.597 1.333-1.333v-6.114l8.385 8.38c0.523 0.521 1.371 0.521 1.891 0s0.521-1.372 0-1.892z"></path>
</symbol>

<symbol id="icon-minus" viewBox="0 0 32 32">
  <path class="path1" d="M28 14.667h-24c-0.736 0-1.333 0.597-1.333 1.333s0.597 1.333 1.333 1.333h24c0.736 0 1.333-0.597 1.333-1.333s-0.597-1.333-1.333-1.333z"></path>
</symbol>

<symbol id="icon-monitor" viewBox="0 0 32 32">
  <path class="path1" d="M26.667 2.667h-21.333c-2.21 0-4 1.79-4 4v13.333c0 2.21 1.79 4 4 4h9.333v2.667h-4c-0.736 0-1.333 0.597-1.333 1.333s0.597 1.333 1.333 1.333h10.667c0.736 0 1.333-0.597 1.333-1.333s-0.597-1.333-1.333-1.333h-4v-2.667h9.333c2.21 0 4-1.79 4-4v-13.333c0-2.21-1.79-4-4-4zM28 20c0 0.737-0.597 1.333-1.333 1.333h-21.333c-0.737 0-1.333-0.597-1.333-1.333v-13.333c0-0.737 0.597-1.333 1.333-1.333h21.333c0.737 0 1.333 0.597 1.333 1.333v13.333z"></path>
</symbol>

<symbol id="icon-moon" viewBox="0 0 32 32">
  <path class="path1" d="M13.375 5.66c-0.027 0.333-0.041 0.669-0.041 1.007 0 6.617 5.383 12 12 12 0.338 0 0.674-0.014 1.007-0.041-1.173 4.616-5.364 8.041-10.34 8.041-5.882 0-10.667-4.785-10.667-10.667 0-4.976 3.425-9.167 8.041-10.34zM16 2.667c-7.364 0-13.333 5.97-13.333 13.333s5.97 13.333 13.333 13.333c7.364 0 13.333-5.969 13.333-13.333 0-0.298-0.013-0.592-0.033-0.885-1.204 0.566-2.548 0.885-3.967 0.885-5.155 0-9.333-4.179-9.333-9.333 0-1.419 0.318-2.763 0.885-3.967-0.293-0.019-0.587-0.033-0.885-0.033v0z"></path>
</symbol>

<symbol id="icon-move" viewBox="0 0 32 32">
  <path class="path1" d="M31.609 15.057l-4.713-4.714c-0.521-0.521-1.365-0.521-1.886 0s-0.521 1.365 0 1.886l2.438 2.438h-10.115v-10.114l2.437 2.437c0.521 0.521 1.365 0.521 1.886 0s0.521-1.365 0-1.886l-4.714-4.714c-0.521-0.521-1.365-0.521-1.886 0l-4.714 4.714c-0.521 0.521-0.521 1.365 0 1.886s1.365 0.521 1.885 0l2.438-2.438v10.114h-10.114l2.438-2.438c0.521-0.521 0.521-1.365 0-1.886s-1.365-0.521-1.886 0l-4.714 4.714c-0.521 0.521-0.521 1.365 0 1.886l4.715 4.714c0.521 0.521 1.365 0.521 1.885 0s0.521-1.365 0-1.885l-2.438-2.438h10.114v10.115l-2.437-2.438c-0.521-0.52-1.365-0.52-1.886 0s-0.521 1.365 0 1.886l4.714 4.714c0.521 0.52 1.365 0.52 1.886 0l4.715-4.714c0.521-0.521 0.521-1.365 0-1.886s-1.365-0.52-1.886 0l-2.438 2.438v-10.115h10.114l-2.438 2.437c-0.521 0.521-0.521 1.365 0 1.886s1.365 0.521 1.886 0l4.714-4.714c0.52-0.52 0.52-1.365-0.001-1.885z"></path>
</symbol>

<symbol id="icon-mute" viewBox="0 0 32 32">
  <path class="path1" d="M5.333 10.667c-2.21 0-4 1.846-4 4.056v2.611c0 2.21 1.79 4 4 4h2.667l6.667 6.667v-24l-6.667 6.667h-2.667zM9.885 12.552l2.114-2.167 0-0.052v11.229l-2.896-2.896h-3.771c-0.735 0-1.333-0.598-1.333-1.333v-2.611c0-0.753 0.611-1.389 1.333-1.389h3.771l0.781-0.781zM28.943 19.057c0.521 0.521 0.521 1.365 0 1.885-0.26 0.26-0.602 0.391-0.943 0.391s-0.682-0.13-0.943-0.391l-3.057-3.057-3.057 3.057c-0.26 0.26-0.602 0.391-0.943 0.391s-0.682-0.13-0.943-0.391c-0.521-0.521-0.521-1.365 0-1.885l3.057-3.057-3.057-3.057c-0.521-0.521-0.521-1.365 0-1.885s1.365-0.521 1.885 0l3.057 3.057 3.057-3.057c0.521-0.521 1.365-0.521 1.885 0s0.521 1.365 0 1.885l-3.057 3.057 3.057 3.057z"></path>
</symbol>

<symbol id="icon-open" viewBox="0 0 32 32">
  <path class="path1" d="M29.333 16c-0.736 0-1.333 0.597-1.333 1.333v9.333c0 0.737-0.597 1.333-1.333 1.333h-21.333c-0.737 0-1.333-0.597-1.333-1.333v-21.333c0-0.737 0.597-1.333 1.333-1.333h9.333c0.736 0 1.333-0.597 1.333-1.333s-0.597-1.333-1.333-1.333h-9.333c-2.209 0-4 1.791-4 4v21.333c0 2.209 1.791 4 4 4h21.333c2.209 0 4-1.791 4-4v-9.333c0-0.736-0.597-1.333-1.333-1.333zM30.667 2.667v8c0 0.736-0.597 1.333-1.333 1.333s-1.333-0.597-1.333-1.333v-4.781l-10.924 10.923c-0.52 0.521-1.365 0.521-1.885 0s-0.521-1.365 0-1.885l10.923-10.923h-4.781c-0.736 0-1.333-0.597-1.333-1.333s0.597-1.333 1.333-1.333h8c0.736 0 1.333 0.597 1.333 1.333z"></path>
</symbol>

<symbol id="icon-outbox" viewBox="0 0 32 32">
  <path class="path1" d="M8.391 10.276c-0.521-0.521-0.521-1.365 0-1.886l6.667-6.667c0.521-0.521 1.365-0.521 1.885 0l6.667 6.667c0.521 0.521 0.521 1.365 0 1.886-0.26 0.26-0.602 0.39-0.943 0.39s-0.682-0.13-0.943-0.39l-4.391-4.391v15.448c0 0.736-0.597 1.333-1.333 1.333s-1.333-0.597-1.333-1.333v-15.448l-4.391 4.391c-0.52 0.52-1.365 0.52-1.885 0zM29.333 20c-0.736 0-1.333 0.597-1.333 1.333v5.333c0 0.735-0.582 1.333-1.298 1.333h-21.368c-0.735 0-1.333-0.598-1.333-1.333v-5.333c0-0.736-0.597-1.333-1.333-1.333s-1.333 0.597-1.333 1.333v5.333c0 0.54 0.106 1.063 0.315 1.557 0.201 0.477 0.49 0.904 0.857 1.271 0.367 0.367 0.795 0.656 1.271 0.857 0.494 0.209 1.018 0.315 1.558 0.315h21.368c0.537 0 1.058-0.107 1.549-0.317 0.473-0.203 0.897-0.492 1.26-0.861 0.362-0.367 0.646-0.795 0.845-1.271 0.206-0.492 0.31-1.015 0.31-1.552v-5.333c0-0.736-0.597-1.333-1.333-1.333z"></path>
</symbol>

<symbol id="icon-paper-clip" viewBox="0 0 32 32">
  <path class="path1" d="M10.667 30.122c-1.212 0-2.393-0.23-3.511-0.684-1.159-0.47-2.198-1.16-3.088-2.050s-1.58-1.93-2.050-3.088c-0.454-1.118-0.684-2.3-0.684-3.511s0.23-2.393 0.684-3.512c0.47-1.159 1.16-2.198 2.050-3.088l0.002-0.002 12.298-12.239c0.634-0.634 1.374-1.125 2.199-1.46 0.796-0.323 1.637-0.487 2.5-0.487s1.703 0.164 2.5 0.487c0.825 0.335 1.565 0.826 2.199 1.46s1.125 1.374 1.46 2.199c0.323 0.797 0.487 1.638 0.487 2.5s-0.164 1.704-0.487 2.5c-0.335 0.825-0.826 1.565-1.46 2.199l-12.271 12.271c-0.382 0.382-0.827 0.677-1.324 0.879-0.479 0.194-0.986 0.293-1.505 0.293s-1.025-0.099-1.505-0.293c-0.497-0.202-0.942-0.497-1.324-0.879s-0.677-0.827-0.879-1.324c-0.194-0.48-0.292-0.986-0.292-1.505s0.099-1.025 0.293-1.505c0.201-0.497 0.497-0.943 0.879-1.324l11.314-11.313c0.521-0.521 1.365-0.521 1.886 0s0.521 1.365 0 1.886l-11.314 11.313c-0.252 0.252-0.391 0.587-0.391 0.943s0.139 0.691 0.391 0.943c0.252 0.252 0.587 0.391 0.943 0.391s0.691-0.139 0.943-0.391l12.271-12.271c0.752-0.752 1.166-1.751 1.166-2.814s-0.414-2.062-1.166-2.814c-0.751-0.752-1.751-1.166-2.814-1.166s-2.063 0.414-2.814 1.166l-0.002 0.002-12.299 12.24c-0.636 0.637-1.129 1.378-1.464 2.204-0.323 0.798-0.488 1.643-0.488 2.509s0.164 1.711 0.488 2.509c0.335 0.826 0.828 1.568 1.465 2.205s1.379 1.13 2.204 1.465c0.799 0.324 1.643 0.488 2.509 0.488s1.711-0.164 2.509-0.488c0.826-0.335 1.568-0.828 2.205-1.465l12.257-12.257c0.521-0.521 1.365-0.521 1.885 0s0.521 1.365 0 1.886l-12.257 12.257c-0.89 0.89-1.929 1.58-3.088 2.050-1.118 0.454-2.299 0.684-3.511 0.684z"></path>
</symbol>

<symbol id="icon-paper-stack" viewBox="0 0 32 32">
  <path class="path1" d="M18.667 29.333h-12c-0.737 0-1.333-0.597-1.333-1.333v-22.434c-1.553 0.55-2.667 2.027-2.667 3.768v18.667c0 2.209 1.791 4 4 4h13.333c1.741 0 3.217-1.114 3.768-2.667h-5.101zM25.333 0h-13.333c-2.209 0-4 1.791-4 4v18.667c0 2.209 1.791 4 4 4h13.333c2.209 0 4-1.791 4-4v-18.667c0-2.209-1.791-4-4-4zM26.667 22.667c0 0.737-0.597 1.334-1.333 1.334h-13.333c-0.736 0-1.333-0.597-1.333-1.334v-18.667c0-0.737 0.597-1.333 1.333-1.333h13.333c0.737 0 1.333 0.597 1.333 1.333v18.667z"></path>
</symbol>

<symbol id="icon-paper" viewBox="0 0 32 32">
  <path class="path1" d="M25.333 0h-18.667c-2.21 0-4 1.79-4 4v24c0 2.21 1.79 4 4 4h18.667c2.21 0 4-1.79 4-4v-24c0-2.21-1.79-4-4-4zM26.667 28c0 0.737-0.597 1.333-1.333 1.333h-18.667c-0.737 0-1.333-0.597-1.333-1.333v-24c0-0.737 0.597-1.333 1.333-1.333h18.667c0.737 0 1.333 0.597 1.333 1.333v24zM21.333 22.667h-10.667c-0.736 0-1.333 0.597-1.333 1.333s0.597 1.333 1.333 1.333h10.667c0.736 0 1.333-0.597 1.333-1.333s-0.597-1.333-1.333-1.333zM21.333 17.333h-10.667c-0.736 0-1.333 0.597-1.333 1.333s0.597 1.333 1.333 1.333h10.667c0.736 0 1.333-0.597 1.333-1.333s-0.597-1.333-1.333-1.333zM21.333 12h-10.667c-0.736 0-1.333 0.597-1.333 1.333s0.597 1.333 1.333 1.333h10.667c0.736 0 1.333-0.597 1.333-1.333s-0.597-1.333-1.333-1.333zM10.667 9.333h5.333c0.736 0 1.333-0.597 1.333-1.333s-0.597-1.333-1.333-1.333h-5.333c-0.736 0-1.333 0.597-1.333 1.333s0.597 1.333 1.333 1.333z"></path>
</symbol>

<symbol id="icon-paragraph" viewBox="0 0 32 32">
  <path class="path1" d="M25.333 1.333h-12c-4.418 0-8 3.582-8 8s3.582 8 8 8h5.333v12c0 0.736 0.597 1.333 1.333 1.333s1.333-0.597 1.333-1.333v-25.333h2.667v25.333c0 0.736 0.597 1.333 1.333 1.333s1.333-0.597 1.333-1.333v-26.667c0-0.736-0.597-1.333-1.333-1.333zM8 9.333c0-2.945 2.388-5.333 5.333-5.333h5.333v10.667h-5.333c-2.945 0-5.333-2.388-5.333-5.333z"></path>
</symbol>

<symbol id="icon-pause" viewBox="0 0 32 32">
  <path class="path1" d="M10.667 4c-2.209 0-4 1.791-4 4v16c0 2.209 1.791 4 4 4s4-1.791 4-4v-16c0-2.209-1.791-4-4-4zM12 24c0 0.736-0.597 1.333-1.333 1.333s-1.333-0.597-1.333-1.333v-16c0-0.736 0.597-1.333 1.333-1.333s1.333 0.597 1.333 1.333v16zM21.333 4c-2.209 0-4 1.791-4 4v16c0 2.209 1.791 4 4 4s4-1.791 4-4v-16c0-2.209-1.791-4-4-4zM22.667 24c0 0.736-0.597 1.333-1.333 1.333s-1.333-0.597-1.333-1.333v-16c0-0.736 0.597-1.333 1.333-1.333s1.333 0.597 1.333 1.333v16z"></path>
</symbol>

<symbol id="icon-pie-graph" viewBox="0 0 32 32">
  <path class="path1" d="M16 1.333c-8.1 0-14.667 6.567-14.667 14.667s6.567 14.667 14.667 14.667c8.1 0 14.667-6.566 14.667-14.667s-6.566-14.667-14.667-14.667zM27.924 14.667h-10.591v-10.591c5.562 0.615 9.976 5.029 10.591 10.591zM16 28c-6.627 0-12-5.373-12-12 0-6.177 4.667-11.261 10.667-11.924v13.257h13.258c-0.664 5.999-5.748 10.667-11.925 10.667z"></path>
</symbol>

<symbol id="icon-play" viewBox="0 0 32 32">
  <path class="path1" d="M8 8.71l12.15 7.29-12.15 7.29v-14.58zM5.333 4v24l20-12-20-12z"></path>
</symbol>

<symbol id="icon-plus" viewBox="0 0 32 32">
  <path class="path1" d="M28 14.667h-10.667v-10.667c0-0.736-0.597-1.333-1.333-1.333s-1.333 0.597-1.333 1.333v10.667h-10.667c-0.736 0-1.333 0.597-1.333 1.333s0.597 1.333 1.333 1.333h10.667v10.667c0 0.736 0.597 1.333 1.333 1.333s1.333-0.597 1.333-1.333v-10.667h10.667c0.736 0 1.333-0.597 1.333-1.333s-0.597-1.333-1.333-1.333z"></path>
</symbol>

<symbol id="icon-power" viewBox="0 0 32 32">
  <path class="path1" d="M16 30.667c-1.799 0-3.546-0.353-5.19-1.048-0.79-0.334-1.552-0.748-2.265-1.23-0.706-0.477-1.369-1.024-1.972-1.627s-1.151-1.267-1.627-1.972c-0.482-0.713-0.896-1.475-1.229-2.265-0.696-1.645-1.049-3.391-1.049-5.19s0.353-3.546 1.049-5.19c0.334-0.79 0.748-1.552 1.229-2.265 0.477-0.706 1.024-1.369 1.627-1.972 0.521-0.521 1.365-0.521 1.886 0s0.521 1.365 0 1.886c-0.98 0.98-1.749 2.121-2.287 3.391-0.556 1.314-0.838 2.711-0.838 4.152s0.282 2.837 0.838 4.152c0.537 1.27 1.307 2.411 2.287 3.391s2.121 1.749 3.391 2.287c1.314 0.556 2.711 0.838 4.152 0.838s2.837-0.282 4.152-0.838c1.27-0.537 2.411-1.307 3.391-2.287s1.749-2.121 2.287-3.391c0.556-1.314 0.838-2.711 0.838-4.152s-0.282-2.837-0.838-4.152c-0.537-1.27-1.307-2.411-2.287-3.391-0.521-0.521-0.521-1.365 0-1.885s1.365-0.521 1.886 0c0.603 0.603 1.151 1.267 1.627 1.972 0.482 0.713 0.895 1.475 1.229 2.265 0.696 1.645 1.049 3.391 1.049 5.19s-0.353 3.546-1.049 5.19c-0.334 0.79-0.748 1.552-1.229 2.265-0.477 0.706-1.024 1.369-1.627 1.972s-1.267 1.151-1.972 1.627c-0.713 0.482-1.475 0.896-2.265 1.23-1.645 0.695-3.391 1.048-5.19 1.048zM17.333 16v-13.333c0-0.736-0.597-1.333-1.333-1.333s-1.333 0.597-1.333 1.333v13.333c0 0.736 0.597 1.333 1.333 1.333s1.333-0.597 1.333-1.333z"></path>
</symbol>

<symbol id="icon-printer" viewBox="0 0 32 32">
  <path class="path1" d="M26.667 13.333h-2.667v-6.667c0-2.21-1.79-4-4-4h-8c-2.21 0-4 1.79-4 4v6.667h-2.667c-2.21 0-4 1.79-4 4v5.333c0 2.21 1.79 4 4 4h2.899c0.549 1.552 2.027 2.667 3.768 2.667h8c1.741 0 3.217-1.114 3.768-2.667h2.899c2.21 0 4-1.79 4-4v-5.333c0-2.21-1.79-4-4-4zM10.667 6.667c0-0.737 0.597-1.333 1.333-1.333h8c0.737 0 1.333 0.597 1.333 1.333v6.667h-10.667v-6.667zM20 26.667h-8c-0.736 0-1.333-0.597-1.333-1.333s0.597-1.333 1.333-1.333h8c0.736 0 1.333 0.597 1.333 1.333s-0.597 1.333-1.333 1.333zM28 22.667c0 0.737-0.597 1.333-1.333 1.333h-2.899c-0.549-1.552-2.027-2.667-3.768-2.667h-8c-1.741 0-3.217 1.114-3.768 2.667h-2.899c-0.737 0-1.333-0.597-1.333-1.333v-5.333c0-0.737 0.597-1.333 1.333-1.333h21.333c0.737 0 1.333 0.597 1.333 1.333v5.333z"></path>
</symbol>

<symbol id="icon-record" viewBox="0 0 32 32">
  <path class="path1" d="M16 4c-6.627 0-12 5.373-12 12s5.373 12 12 12 12-5.373 12-12-5.373-12-12-12zM16 25.333c-5.155 0-9.333-4.179-9.333-9.333s4.179-9.333 9.333-9.333 9.333 4.179 9.333 9.333-4.179 9.333-9.333 9.333z"></path>
</symbol>

<symbol id="icon-reload" viewBox="0 0 32 32">
  <path class="path1" d="M30.667 5.333v8c0 0.736-0.597 1.333-1.333 1.333h-8c-0.736 0-1.333-0.597-1.333-1.333s0.597-1.333 1.333-1.333h4.496c-1.808-1.763-3.233-3.156-3.62-3.542-1.019-1.019-2.206-1.807-3.528-2.343-1.278-0.518-2.629-0.781-4.015-0.781s-2.737 0.263-4.015 0.781c-1.322 0.536-2.509 1.325-3.528 2.343s-1.807 2.205-2.343 3.528c-0.518 1.278-0.781 2.629-0.781 4.015s0.263 2.737 0.781 4.015c0.536 1.322 1.325 2.509 2.343 3.528s2.206 1.807 3.528 2.343c1.278 0.518 2.629 0.781 4.015 0.781s2.737-0.263 4.015-0.781c1.322-0.536 2.509-1.325 3.528-2.343 0.572-0.572 1.078-1.206 1.503-1.885 0.413-0.66 0.754-1.367 1.013-2.101 0.245-0.695 1.007-1.059 1.701-0.814s1.059 1.007 0.814 1.701c-0.325 0.92-0.751 1.805-1.269 2.63-0.532 0.849-1.163 1.641-1.877 2.354-1.272 1.272-2.757 2.258-4.411 2.929-0.795 0.323-1.627 0.569-2.471 0.732-0.836 0.162-1.693 0.244-2.546 0.244s-1.709-0.082-2.546-0.244c-0.844-0.163-1.676-0.41-2.471-0.732-1.655-0.671-3.139-1.656-4.411-2.929s-2.258-2.757-2.929-4.412c-0.323-0.795-0.569-1.627-0.733-2.471-0.162-0.837-0.244-1.693-0.244-2.546s0.082-1.709 0.244-2.546c0.164-0.844 0.41-1.676 0.733-2.471 0.671-1.655 1.656-3.139 2.929-4.411s2.757-2.258 4.411-2.929c0.795-0.323 1.627-0.569 2.471-0.732 0.837-0.162 1.693-0.244 2.546-0.244s1.709 0.082 2.546 0.244c0.844 0.163 1.676 0.41 2.471 0.732 1.655 0.671 3.139 1.656 4.411 2.929 0.398 0.398 1.958 1.921 3.905 3.82v-5.058c0-0.736 0.597-1.333 1.333-1.333s1.333 0.597 1.333 1.333z"></path>
</symbol>

<symbol id="icon-repeat" viewBox="0 0 32 32">
  <path class="path1" d="M32 5.333v8c0 0.736-0.597 1.333-1.333 1.333h-8c-0.736 0-1.333-0.597-1.333-1.333s0.597-1.333 1.333-1.333h4.496c-1.794-1.749-3.211-3.133-3.611-3.533-0.003-0.003-0.006-0.006-0.009-0.009-1.019-1.019-2.206-1.807-3.528-2.343-1.278-0.518-2.629-0.781-4.015-0.781s-2.737 0.263-4.015 0.781c-1.322 0.536-2.509 1.325-3.528 2.343-0.089 0.089-0.177 0.18-0.263 0.272-0.853 0.914-1.53 1.954-2.015 3.099-0.074 0.209-0.167 0.411-0.241 0.621-0.247 0.69-1.007 1.052-1.699 0.808-0.691-0.244-1.055-0.998-0.818-1.689 0.101-0.292 0.215-0.58 0.338-0.863 0.266-0.616 0.579-1.211 0.935-1.779 0.449-0.716 0.968-1.392 1.549-2.014 0.107-0.115 0.217-0.229 0.328-0.34 1.272-1.272 2.757-2.258 4.411-2.929 0.795-0.323 1.627-0.569 2.471-0.732 0.837-0.162 1.693-0.244 2.546-0.244s1.709 0.082 2.546 0.244c0.844 0.163 1.676 0.41 2.471 0.732 1.655 0.671 3.139 1.656 4.411 2.929l0.020 0.020c0.427 0.426 1.968 1.931 3.886 3.8v-5.058c0-0.736 0.597-1.333 1.333-1.333s1.333 0.597 1.333 1.333zM1.333 28c0.736 0 1.333-0.597 1.333-1.333v-5.058c1.917 1.869 3.458 3.374 3.886 3.8l0.020 0.020c1.272 1.272 2.757 2.258 4.411 2.929 0.795 0.323 1.627 0.569 2.471 0.732 0.836 0.162 1.693 0.244 2.546 0.244 1.715 0 3.427-0.332 5.017-0.977 1.655-0.671 3.139-1.656 4.411-2.929 0.112-0.111 0.221-0.225 0.328-0.34 0.58-0.622 1.1-1.298 1.549-2.014 0.356-0.567 0.669-1.163 0.935-1.779 0.123-0.283 0.237-0.571 0.338-0.863 0.237-0.691-0.127-1.446-0.818-1.689-0.692-0.244-1.451 0.117-1.699 0.808-0.074 0.21-0.167 0.412-0.241 0.621-1.092 2.576-3.214 4.663-5.806 5.715-1.278 0.518-2.628 0.781-4.014 0.781s-2.737-0.263-4.015-0.781c-1.322-0.536-2.509-1.325-3.528-2.343-0.003-0.003-0.006-0.006-0.009-0.009-0.4-0.4-1.817-1.784-3.611-3.533h4.496c0.736 0 1.333-0.597 1.333-1.333s-0.597-1.333-1.333-1.333h-8c-0.736 0-1.333 0.597-1.333 1.333v8c0 0.736 0.597 1.333 1.333 1.333z"></path>
</symbol>

<symbol id="icon-reply" viewBox="0 0 32 32">
  <path class="path1" d="M18.667 12h-12.781l6.209-6.209c0.521-0.521 0.521-1.365 0-1.886s-1.365-0.521-1.886 0l-8.485 8.485c-0.521 0.521-0.521 1.365 0 1.886l8.485 8.485c0.521 0.521 1.365 0.521 1.886 0s0.521-1.365 0-1.886l-6.209-6.209h12.781c5.155 0 9.333 4.179 9.333 9.333v1.333c0 0.736 0.597 1.333 1.333 1.333s1.333-0.597 1.333-1.333v-1.333c0-6.628-5.373-12-12-12z"></path>
</symbol>

<symbol id="icon-rewind" viewBox="0 0 32 32">
  <path class="path1" d="M16 26.667c-0.341 0-0.682-0.13-0.943-0.391l-9.333-9.333c-0.521-0.521-0.521-1.365 0-1.885l9.333-9.333c0.521-0.521 1.365-0.521 1.886 0s0.521 1.365 0 1.886l-8.39 8.39 8.39 8.391c0.521 0.521 0.521 1.365 0 1.885-0.26 0.26-0.602 0.391-0.943 0.391zM24.943 26.276c0.521-0.521 0.521-1.365 0-1.885l-8.39-8.391 8.39-8.39c0.521-0.521 0.521-1.365 0-1.886s-1.365-0.521-1.885 0l-9.333 9.333c-0.521 0.521-0.521 1.365 0 1.885l9.333 9.333c0.26 0.26 0.602 0.391 0.943 0.391s0.682-0.13 0.943-0.391z"></path>
</symbol>

<symbol id="icon-ribbon" viewBox="0 0 32 32">
  <path class="path1" d="M22.667 4c0.735 0 1.333 0.598 1.333 1.333v20l-8-6-8 6v-20c0-0.735 0.598-1.333 1.333-1.333h13.333zM22.667 1.333h-13.333c-2.21 0-4 1.79-4 4v25.333l10.667-8 10.667 8v-25.333c0-2.21-1.79-4-4-4v0z"></path>
</symbol>

<symbol id="icon-search" viewBox="0 0 32 32">
  <path class="path1" d="M30.276 28.391l-7.567-7.567c1.642-2.053 2.624-4.657 2.624-7.49 0-6.627-5.372-12-12-12s-12 5.373-12 12 5.373 12 12 12c2.833 0 5.437-0.982 7.49-2.624l7.567 7.567c0.26 0.26 0.602 0.391 0.943 0.391s0.683-0.13 0.943-0.391c0.521-0.52 0.521-1.365 0-1.885zM13.333 22.667c-5.155 0-9.333-4.179-9.333-9.333s4.179-9.333 9.333-9.333c5.155 0 9.333 4.179 9.333 9.333s-4.178 9.333-9.333 9.333z"></path>
</symbol>

<symbol id="icon-server" viewBox="0 0 32 32">
  <path class="path1" d="M16 1.333c-7.064 0-14.667 1.669-14.667 5.333v18.667c0 3.664 7.603 5.333 14.667 5.333s14.667-1.669 14.667-5.333v-18.667c0-3.664-7.603-5.333-14.667-5.333zM16 4c7.73 0 11.727 1.912 11.995 2.667-0.269 0.755-4.266 2.667-11.995 2.667s-11.727-1.912-11.996-2.667c0.269-0.755 4.266-2.667 11.996-2.667zM4 9.908c2.838 1.422 7.526 2.092 12 2.092s9.163-0.671 12-2.093l0.001 6.076c-0.211 0.741-4.21 2.684-12.001 2.684-7.8 0-11.799-1.947-12-2.667v-6.093zM16 28c-7.8 0-11.799-1.947-12-2.667v-6.092c2.838 1.422 7.526 2.092 12 2.092 4.475 0 9.164-0.671 12.001-2.094l0.001 6.074c-0.203 0.739-4.202 2.686-12.002 2.686z"></path>
</symbol>

<symbol id="icon-share" viewBox="0 0 32 32">
  <path class="path1" d="M24 18.667c-1.604 0-3.040 0.712-4.018 1.834l-6.767-3.384c0.077-0.36 0.119-0.734 0.119-1.117s-0.042-0.757-0.119-1.117l6.768-3.384c0.978 1.122 2.414 1.834 4.018 1.834 2.945 0 5.333-2.388 5.333-5.333s-2.388-5.333-5.333-5.333-5.333 2.388-5.333 5.333c0 0.383 0.042 0.757 0.119 1.117l-6.767 3.384c-0.978-1.122-2.414-1.834-4.018-1.834-2.945 0-5.333 2.388-5.333 5.333s2.388 5.333 5.333 5.333c1.605 0 3.040-0.712 4.018-1.834l6.767 3.384c-0.077 0.36-0.119 0.734-0.119 1.117 0 2.945 2.388 5.333 5.333 5.333s5.333-2.388 5.333-5.333-2.388-5.333-5.333-5.333zM24 5.333c1.473 0 2.667 1.194 2.667 2.667s-1.194 2.667-2.667 2.667-2.667-1.194-2.667-2.667 1.194-2.667 2.667-2.667zM8 18.667c-1.473 0-2.667-1.194-2.667-2.667s1.194-2.667 2.667-2.667 2.667 1.194 2.667 2.667-1.194 2.667-2.667 2.667zM24 26.667c-1.473 0-2.667-1.194-2.667-2.667s1.194-2.667 2.667-2.667 2.667 1.194 2.667 2.667-1.194 2.667-2.667 2.667z"></path>
</symbol>

<symbol id="icon-shuffle" viewBox="0 0 32 32">
  <path class="path1" d="M17.717 11.048c-1.075 1.362-1.717 3.082-1.717 4.952 0 1.875-0.484 3.637-1.333 5.168-0.467 0.842-1.046 1.615-1.715 2.298-1.936 1.975-4.634 3.2-7.618 3.2h-2.667c-0.736 0-1.333-0.597-1.333-1.333s0.597-1.333 1.333-1.333h2.667c2.548 0 4.818-1.191 6.283-3.048 1.075-1.362 1.717-3.082 1.717-4.952 0-1.875 0.484-3.637 1.333-5.168 0.467-0.842 1.046-1.615 1.715-2.298 1.936-1.975 4.634-3.2 7.618-3.2h2.114l-3.057-3.057c-0.521-0.521-0.521-1.365 0-1.885s1.365-0.521 1.885 0l5.333 5.333c0.521 0.521 0.521 1.365 0 1.885l-5.333 5.333c-0.26 0.26-0.602 0.391-0.943 0.391s-0.682-0.13-0.943-0.391c-0.521-0.521-0.521-1.365 0-1.885l3.057-3.057h-2.114c-2.548 0-4.818 1.191-6.283 3.048zM2.667 8h2.667c2.548 0 4.818 1.191 6.283 3.048 0.356-0.889 0.805-1.731 1.335-2.514-1.936-1.975-4.634-3.201-7.618-3.201h-2.667c-0.736 0-1.333 0.597-1.333 1.333s0.597 1.333 1.333 1.333zM24.943 19.057c-0.521-0.521-1.365-0.521-1.885 0s-0.521 1.365 0 1.885l3.057 3.057h-2.114c-2.548 0-4.818-1.191-6.283-3.048-0.356 0.889-0.805 1.731-1.335 2.514 1.936 1.975 4.634 3.201 7.618 3.201h2.114l-3.057 3.057c-0.521 0.521-0.521 1.365 0 1.885 0.26 0.26 0.602 0.391 0.943 0.391s0.682-0.13 0.943-0.391l5.333-5.333c0.521-0.521 0.521-1.365 0-1.885l-5.333-5.333z"></path>
</symbol>

<symbol id="icon-signal" viewBox="0 0 32 32">
  <path class="path1" d="M19.377 22.245c-2.086-1.224-4.676-1.219-6.759 0.010-0.633 0.375-0.844 1.192-0.469 1.827 0.374 0.633 1.192 0.844 1.826 0.469 1.249-0.738 2.802-0.74 4.053-0.007 0.535 0.313 1.198 0.212 1.617-0.206 0.079-0.079 0.149-0.169 0.208-0.27 0.372-0.634 0.159-1.451-0.476-1.824zM6.716 16.643c-0.572 0.466-0.653 1.307-0.186 1.877s1.307 0.652 1.876 0.186c4.4-3.607 10.788-3.607 15.188-0.001 0.535 0.437 1.308 0.391 1.786-0.088 0.031-0.031 0.062-0.064 0.090-0.099 0.467-0.57 0.383-1.41-0.186-1.876-5.38-4.408-13.188-4.408-18.568 0.001zM30.996 11c-8.549-7.556-21.443-7.556-29.992 0-0.551 0.481-0.604 1.33-0.116 1.882s1.33 0.604 1.882 0.116c7.542-6.666 18.918-6.666 26.46 0 0.531 0.469 1.331 0.438 1.825-0.055 0.020-0.020 0.038-0.040 0.057-0.061 0.488-0.552 0.436-1.394-0.116-1.882z"></path>
</symbol>

<symbol id="icon-skip-back" viewBox="0 0 32 32">
  <path class="path1" d="M23.609 5.724c0.521 0.521 0.521 1.365 0 1.885l-8.39 8.391 8.39 8.391c0.521 0.521 0.521 1.365 0 1.885s-1.365 0.521-1.885 0l-9.333-9.333c-0.521-0.521-0.521-1.365 0-1.885l9.333-9.333c0.26-0.26 0.602-0.391 0.943-0.391s0.682 0.13 0.943 0.391zM8 5.333c-0.736 0-1.333 0.597-1.333 1.333v18.667c0 0.736 0.597 1.333 1.333 1.333s1.333-0.597 1.333-1.333v-18.667c0-0.736-0.597-1.333-1.333-1.333z"></path>
</symbol>

<symbol id="icon-skip-forward" viewBox="0 0 32 32">
  <path class="path1" d="M7.057 26.276c-0.521-0.521-0.521-1.365 0-1.885l8.39-8.391-8.39-8.391c-0.521-0.521-0.521-1.365 0-1.885s1.365-0.521 1.885 0l9.333 9.333c0.521 0.521 0.521 1.365 0 1.885l-9.333 9.333c-0.26 0.26-0.602 0.391-0.943 0.391s-0.682-0.13-0.943-0.391zM22.667 26.667c0.736 0 1.333-0.597 1.333-1.333v-18.667c0-0.736-0.597-1.333-1.333-1.333s-1.333 0.597-1.333 1.333v18.667c0 0.736 0.597 1.333 1.333 1.333z"></path>
</symbol>

<symbol id="icon-speech-bubble" viewBox="0 0 32 32">
  <path class="path1" d="M26.667 4c0.735 0 1.333 0.598 1.333 1.333v14.667c0 0.735-0.598 1.333-1.333 1.333h-11.521l-5.812 4.152v-4.152h-4c-0.736 0-1.333-0.598-1.333-1.333v-14.667c0-0.736 0.598-1.333 1.333-1.333h21.333zM26.667 1.333h-21.333c-2.209 0-4 1.791-4 4v14.667c0 2.209 1.791 4 4 4h1.333v6.667l9.333-6.667h10.667c2.209 0 4-1.791 4-4v-14.667c0-2.209-1.791-4-4-4v0z"></path>
</symbol>

<symbol id="icon-square-add" viewBox="0 0 32 32">
  <path class="path1" d="M26.667 1.333h-21.333c-2.21 0-4 1.79-4 4v21.333c0 2.21 1.79 4 4 4h21.333c2.21 0 4-1.79 4-4v-21.333c0-2.21-1.79-4-4-4zM28 26.667c0 0.737-0.597 1.333-1.333 1.333h-21.333c-0.737 0-1.333-0.597-1.333-1.333v-21.333c0-0.737 0.597-1.333 1.333-1.333h21.333c0.737 0 1.333 0.597 1.333 1.333v21.333zM21.333 14.667h-4v-4c0-0.736-0.597-1.333-1.333-1.333s-1.333 0.597-1.333 1.333v4h-4c-0.736 0-1.333 0.597-1.333 1.333s0.597 1.333 1.333 1.333h4v4c0 0.736 0.597 1.333 1.333 1.333s1.333-0.597 1.333-1.333v-4h4c0.736 0 1.333-0.597 1.333-1.333s-0.597-1.333-1.333-1.333z"></path>
</symbol>

<symbol id="icon-square-check" viewBox="0 0 32 32">
  <path class="path1" d="M26.667 1.333h-21.333c-2.21 0-4 1.79-4 4v21.333c0 2.21 1.79 4 4 4h21.333c2.21 0 4-1.79 4-4v-21.333c0-2.21-1.79-4-4-4zM28 26.667c0 0.737-0.597 1.333-1.333 1.333h-21.333c-0.736 0-1.333-0.597-1.333-1.333v-21.333c0-0.736 0.597-1.333 1.333-1.333h21.333c0.737 0 1.333 0.597 1.333 1.333v21.333zM20.391 11.757l-5.657 5.657-2.828-2.828c-0.521-0.521-1.365-0.521-1.886 0s-0.521 1.365 0 1.885l3.77 3.771c0.521 0.521 1.365 0.521 1.886 0l6.6-6.6c0.521-0.52 0.521-1.364 0.001-1.885s-1.365-0.521-1.886-0z"></path>
</symbol>

<symbol id="icon-square-cross" viewBox="0 0 32 32">
  <path class="path1" d="M26.667 1.333h-21.333c-2.21 0-4 1.79-4 4v21.333c0 2.21 1.79 4 4 4h21.333c2.21 0 4-1.79 4-4v-21.333c0-2.21-1.79-4-4-4zM28 26.667c0 0.737-0.597 1.333-1.333 1.333h-21.333c-0.737 0-1.333-0.597-1.333-1.333v-21.333c0-0.737 0.597-1.333 1.333-1.333h21.333c0.737 0 1.333 0.597 1.333 1.333v21.333zM20.714 11.286c-0.521-0.521-1.366-0.521-1.886 0l-2.828 2.829-2.828-2.828c-0.521-0.521-1.365-0.521-1.886 0s-0.521 1.366 0 1.886l2.828 2.828-2.828 2.828c-0.521 0.521-0.521 1.365 0 1.886s1.365 0.521 1.886 0l2.828-2.828 2.828 2.828c0.521 0.521 1.365 0.521 1.886 0s0.521-1.366 0-1.886l-2.828-2.828 2.828-2.828c0.521-0.521 0.521-1.365 0-1.886z"></path>
</symbol>

<symbol id="icon-square-minus" viewBox="0 0 32 32">
  <path class="path1" d="M26.667 1.333h-21.333c-2.21 0-4 1.79-4 4v21.333c0 2.21 1.79 4 4 4h21.333c2.21 0 4-1.79 4-4v-21.333c0-2.21-1.79-4-4-4zM28 26.667c0 0.737-0.597 1.333-1.333 1.333h-21.333c-0.737 0-1.333-0.597-1.333-1.333v-21.333c0-0.737 0.597-1.333 1.333-1.333h21.333c0.737 0 1.333 0.597 1.333 1.333v21.333zM21.333 14.667h-10.667c-0.736 0-1.333 0.597-1.333 1.333s0.597 1.333 1.333 1.333h10.667c0.736 0 1.333-0.597 1.333-1.333s-0.597-1.333-1.333-1.333z"></path>
</symbol>

<symbol id="icon-stack-2" viewBox="0 0 32 32">
  <path class="path1" d="M5.333 25.333v-17.104c-1.553 0.547-2.667 2.027-2.667 3.77v13.333c0 2.21 1.79 4 4 4h13.333c1.743 0 3.223-1.113 3.77-2.667h-17.104c-0.737 0-1.333-0.597-1.333-1.333zM25.333 2.667h-13.333c-2.21 0-4 1.79-4 4v13.333c0 2.21 1.79 4 4 4h13.333c2.21 0 4-1.79 4-4v-13.333c0-2.21-1.79-4-4-4zM26.667 20c0 0.737-0.597 1.333-1.333 1.333h-13.333c-0.737 0-1.333-0.597-1.333-1.333v-13.333c0-0.737 0.597-1.333 1.333-1.333h13.333c0.737 0 1.333 0.597 1.333 1.333v13.333z"></path>
</symbol>

<symbol id="icon-stack" viewBox="0 0 32 32">
  <path class="path1" d="M26.667 1.333h-12c-2.21 0-4 1.79-4 4v5.333h-5.333c-2.21 0-4 1.79-4 4v12c0 2.21 1.79 4 4 4h12c2.21 0 4-1.79 4-4v-5.333h5.333c2.21 0 4-1.79 4-4v-12c0-2.21-1.79-4-4-4zM18.667 26.667c0 0.737-0.597 1.333-1.333 1.333h-12c-0.737 0-1.333-0.597-1.333-1.333v-12c0-0.737 0.597-1.333 1.333-1.333h5.333v4c0 2.21 1.79 4 4 4h4v5.333zM28 17.333c0 0.737-0.597 1.333-1.333 1.333h-12c-0.737 0-1.333-0.597-1.333-1.333v-12c0-0.737 0.597-1.333 1.333-1.333h12c0.737 0 1.333 0.597 1.333 1.333v12z"></path>
</symbol>

<symbol id="icon-star" viewBox="0 0 32 32">
  <path class="path1" d="M16 9.253l1.667 5.298h5.164l-4.149 2.788 1.63 4.933-4.303-3.16-4.317 3.121 1.629-4.917-4.168-2.766h5.179l1.667-5.298zM16 0.79l-3.605 11.094h-11.665l9.437 6.557-3.605 10.837 9.437-6.849 9.438 6.904-3.605-10.9 9.438-6.549h-11.666l-3.605-11.094z"></path>
</symbol>

<symbol id="icon-stop" viewBox="0 0 32 32">
  <path class="path1" d="M24 4h-16c-2.21 0-4 1.79-4 4v16c0 2.21 1.79 4 4 4h16c2.21 0 4-1.79 4-4v-16c0-2.21-1.79-4-4-4zM25.333 24c0 0.737-0.597 1.333-1.333 1.333h-16c-0.737 0-1.333-0.597-1.333-1.333v-16c0-0.737 0.597-1.333 1.333-1.333h16c0.737 0 1.333 0.597 1.333 1.333v16z"></path>
</symbol>

<symbol id="icon-sun" viewBox="0 0 32 32">
  <path class="path1" d="M17.333 1.333v2.667c0 0.736-0.597 1.333-1.333 1.333s-1.333-0.597-1.333-1.333v-2.667c0-0.736 0.597-1.333 1.333-1.333s1.333 0.597 1.333 1.333zM16 26.667c-0.736 0-1.333 0.597-1.333 1.333v2.667c0 0.736 0.597 1.333 1.333 1.333s1.333-0.597 1.333-1.333v-2.667c0-0.736-0.597-1.333-1.333-1.333zM4.686 4.686c-0.521 0.521-0.521 1.365 0 1.886l1.886 1.886c0.521 0.521 1.365 0.521 1.886 0s0.521-1.365 0-1.886l-1.886-1.886c-0.521-0.521-1.365-0.521-1.886 0zM23.542 23.542c-0.521 0.521-0.521 1.365 0 1.886l1.886 1.886c0.521 0.521 1.365 0.521 1.886 0s0.521-1.365 0-1.886l-1.886-1.886c-0.521-0.521-1.365-0.521-1.886 0zM0 16c0 0.736 0.597 1.333 1.333 1.333h2.667c0.736 0 1.333-0.597 1.333-1.333s-0.597-1.333-1.333-1.333h-2.667c-0.736 0-1.333 0.597-1.333 1.333zM26.667 16c0 0.736 0.597 1.333 1.333 1.333h2.667c0.736 0 1.333-0.597 1.333-1.333s-0.597-1.333-1.333-1.333h-2.667c-0.736 0-1.333 0.597-1.333 1.333zM4.686 27.314c0.521 0.521 1.365 0.521 1.886 0l1.885-1.886c0.521-0.521 0.521-1.365 0-1.886s-1.365-0.521-1.885 0l-1.886 1.886c-0.521 0.521-0.521 1.365 0 1.886zM23.542 8.458c0.521 0.521 1.365 0.521 1.886 0l1.886-1.886c0.521-0.521 0.521-1.365 0-1.886s-1.365-0.521-1.886 0l-1.886 1.886c-0.521 0.52-0.521 1.365 0 1.886zM24 16c0 4.418-3.582 8-8 8s-8-3.582-8-8 3.582-8 8-8 8 3.582 8 8zM21.333 16c0-2.946-2.388-5.333-5.333-5.333s-5.333 2.388-5.333 5.333 2.388 5.333 5.333 5.333 5.333-2.388 5.333-5.333z"></path>
</symbol>

<symbol id="icon-tag" viewBox="0 0 32 32">
  <path class="path1" d="M15.314 4l12.295 12.296c0.34 0.339 0.391 0.736 0.391 0.943s-0.051 0.603-0.391 0.943l-9.428 9.428c-0.34 0.34-0.737 0.391-0.943 0.391s-0.603-0.051-0.943-0.391l-12.296-12.296v-11.314h11.314zM16.418 1.333h-15.085v15.085l13.077 13.077c0.781 0.781 1.805 1.172 2.829 1.172s2.047-0.391 2.828-1.172l9.428-9.428c1.562-1.562 1.562-4.095 0-5.657l-13.077-13.077zM11.333 8c-1.841 0-3.333 1.493-3.333 3.333s1.492 3.333 3.333 3.333c1.841 0 3.333-1.493 3.333-3.333s-1.492-3.333-3.333-3.333zM11.333 12c-0.368 0-0.667-0.299-0.667-0.667s0.299-0.667 0.667-0.667 0.667 0.299 0.667 0.667-0.298 0.667-0.667 0.667z"></path>
</symbol>

<symbol id="icon-target" viewBox="0 0 32 32">
  <path class="path1" d="M16 1.333c-8.1 0-14.667 6.566-14.667 14.667s6.566 14.667 14.667 14.667 14.667-6.566 14.667-14.667-6.566-14.667-14.667-14.667zM16 28c-6.627 0-12-5.373-12-12s5.373-12 12-12 12 5.373 12 12-5.373 12-12 12zM16 6.667c-5.155 0-9.333 4.179-9.333 9.333s4.179 9.333 9.333 9.333 9.333-4.179 9.333-9.333-4.179-9.333-9.333-9.333zM16 22.667c-3.682 0-6.667-2.985-6.667-6.667s2.985-6.667 6.667-6.667 6.667 2.985 6.667 6.667-2.985 6.667-6.667 6.667zM16 12c-2.209 0-4 1.791-4 4s1.791 4 4 4 4-1.791 4-4-1.791-4-4-4zM16 17.333c-0.736 0-1.333-0.597-1.333-1.333s0.597-1.333 1.333-1.333 1.333 0.597 1.333 1.333-0.597 1.333-1.333 1.333z"></path>
</symbol>

<symbol id="icon-thermometer" viewBox="0 0 32 32">
  <path class="path1" d="M20 19.010v-14.343c0-2.577-2.089-4.667-4.667-4.667s-4.667 2.089-4.667 4.667v14.343c-1.629 1.344-2.667 3.38-2.667 5.657 0 4.050 3.283 7.333 7.333 7.333s7.333-3.283 7.333-7.333c0-2.277-1.038-4.313-2.667-5.657zM15.333 29.333c-2.577 0-4.667-2.089-4.667-4.667 0-1.861 1.091-3.462 2.667-4.212v-15.788c0-1.104 0.896-2 2-2s2 0.896 2 2v15.788c1.576 0.75 2.667 2.351 2.667 4.212 0 2.577-2.089 4.667-4.667 4.667z"></path>
</symbol>

<symbol id="icon-toggle" viewBox="0 0 32 32">
  <path class="path1" d="M21.333 5.333h-10.667c-5.89 0-10.667 4.777-10.667 10.667s4.777 10.667 10.667 10.667h10.667c5.89 0 10.667-4.777 10.667-10.667s-4.777-10.667-10.667-10.667zM21.333 24h-10.667c-4.418 0-8-3.582-8-8s3.582-8 8-8h10.667c4.418 0 8 3.582 8 8s-3.582 8-8 8zM10.667 10.667c-2.945 0-5.333 2.388-5.333 5.333s2.388 5.333 5.333 5.333 5.333-2.388 5.333-5.333-2.388-5.333-5.333-5.333zM10.667 18.667c-1.473 0-2.667-1.194-2.667-2.667s1.194-2.667 2.667-2.667 2.667 1.194 2.667 2.667-1.194 2.667-2.667 2.667z"></path>
</symbol>

<symbol id="icon-trash" viewBox="0 0 32 32">
  <path class="path1" d="M28 7.333h-5.333v-1.333c0-2.21-1.79-4-4-4h-5.333c-2.21 0-4 1.79-4 4v1.333h-5.333c-0.736 0-1.333 0.597-1.333 1.333s0.597 1.333 1.333 1.333h1.333v16c0 2.21 1.79 4 4 4h13.333c2.21 0 4-1.79 4-4v-16h1.333c0.736 0 1.333-0.597 1.333-1.333s-0.597-1.333-1.333-1.333zM12 6c0-0.737 0.597-1.333 1.333-1.333h5.333c0.737 0 1.333 0.597 1.333 1.333v1.333h-8v-1.333zM24 26c0 0.737-0.597 1.333-1.333 1.333h-13.333c-0.737 0-1.333-0.597-1.333-1.333v-16h16v16z"></path>
</symbol>

<symbol id="icon-umbrella" viewBox="0 0 32 32">
  <path class="path1" d="M24 24c-0.736 0-1.333 0.597-1.333 1.333 0 1.473-1.194 2.667-2.667 2.667s-2.667-1.194-2.667-2.667v-8h14.667c0-0.909-0.076-1.799-0.221-2.667-1.27-7.567-7.851-13.333-15.779-13.333s-14.509 5.766-15.779 13.333c-0.146 0.867-0.221 1.758-0.221 2.667h14.667v8c0 2.946 2.388 5.333 5.333 5.333s5.333-2.388 5.333-5.333c0-0.736-0.597-1.333-1.333-1.333zM16 4c6.451 0 11.831 4.581 13.066 10.667h-26.133c1.235-6.086 6.616-10.667 13.067-10.667z"></path>
</symbol>

<symbol id="icon-unlock" viewBox="0 0 32 32">
  <path class="path1" d="M26.667 14.667h-16v-5.333c0-2.945 2.388-5.333 5.333-5.333s5.333 2.388 5.333 5.333v1.333c0 0.736 0.597 1.333 1.333 1.333s1.333-0.597 1.333-1.333v-1.333c0-4.418-3.582-8-8-8s-8 3.582-8 8v5.333h-2.667c-2.21 0-4 1.79-4 4v8c0 2.21 1.79 4 4 4h21.333c2.21 0 4-1.79 4-4v-8c0-2.21-1.79-4-4-4zM28 26.667c0 0.737-0.597 1.333-1.333 1.333h-21.333c-0.737 0-1.333-0.597-1.333-1.333v-8c0-0.737 0.597-1.333 1.333-1.333h21.333c0.737 0 1.333 0.597 1.333 1.333v8z"></path>
</symbol>

<symbol id="icon-upload" viewBox="0 0 32 32">
  <path class="path1" d="M2.667 22.667v-18.667c0-2.209 1.791-4 4-4h18.667c2.209 0 4 1.791 4 4v18.667c0 2.209-1.791 4-4 4h-5.333v-2.667h5.333c0.736 0 1.333-0.597 1.333-1.333v-18.667c0-0.736-0.597-1.333-1.333-1.333h-18.667c-0.736 0-1.333 0.597-1.333 1.333v18.667c0 0.736 0.597 1.333 1.333 1.333h5.333v2.667h-5.333c-2.209 0-4-1.791-4-4zM9.724 15.609c0.521 0.521 1.365 0.521 1.885 0l3.057-3.057v18.114c0 0.736 0.597 1.333 1.333 1.333s1.333-0.597 1.333-1.333v-18.114l3.057 3.057c0.521 0.521 1.365 0.521 1.885 0s0.521-1.365 0-1.885l-5.333-5.333c-0.25-0.25-0.589-0.391-0.943-0.391s-0.693 0.141-0.943 0.391l-5.333 5.333c-0.521 0.52-0.521 1.365 0 1.885z"></path>
</symbol>

<symbol id="icon-video" viewBox="0 0 32 32">
  <path class="path1" d="M22.667 13.091v-2.424c0-2.21-1.79-4-4-4h-14.667c-2.21 0-4 1.79-4 4v10.667c0 2.21 1.79 4 4 4h14.667c2.21 0 4-1.79 4-4v-2.424l9.333 5.091v-16l-9.333 5.091zM20 21.333c0 0.737-0.597 1.333-1.333 1.333h-14.667c-0.737 0-1.333-0.597-1.333-1.333v-10.667c0-0.737 0.597-1.333 1.333-1.333h14.667c0.737 0 1.333 0.597 1.333 1.333v10.667zM29.333 19.508l-6.431-3.508 6.431-3.508v7.015z"></path>
</symbol>

<symbol id="icon-volume" viewBox="0 0 32 32">
  <path class="path1" d="M4 10.667c-2.21 0-4 1.846-4 4.056v2.611c0 2.21 1.79 4 4 4h2.667l6.667 6.667v-24l-6.667 6.667h-2.667zM10.666 10.386l0-0.052v11.229l-2.896-2.896h-3.771c-0.735 0-1.333-0.598-1.333-1.333v-2.611c0-0.753 0.611-1.389 1.333-1.389h3.771l2.896-2.948zM23.451 24.168c-0.233 0-0.469-0.061-0.683-0.189-0.632-0.378-0.838-1.196-0.46-1.828 0.544-0.91 0.964-1.887 1.249-2.904 0.294-1.050 0.443-2.141 0.443-3.243s-0.149-2.193-0.443-3.243c-0.285-1.017-0.705-1.994-1.249-2.904-0.378-0.632-0.172-1.451 0.46-1.828s1.451-0.172 1.828 0.46c0.665 1.113 1.179 2.308 1.528 3.553 0.36 1.284 0.542 2.617 0.542 3.962s-0.182 2.678-0.542 3.963c-0.349 1.245-0.863 2.44-1.528 3.553-0.25 0.418-0.692 0.649-1.146 0.649zM27.442 27.826c-0.258 0-0.519-0.075-0.749-0.231-0.609-0.414-0.766-1.244-0.352-1.853 1.958-2.877 2.993-6.245 2.993-9.739s-1.035-6.862-2.993-9.739c-0.414-0.609-0.257-1.438 0.352-1.853s1.438-0.257 1.853 0.352c2.26 3.321 3.455 7.208 3.455 11.24s-1.195 7.919-3.455 11.24c-0.258 0.379-0.677 0.583-1.104 0.583zM19.378 20.434c-0.172 0-0.347-0.034-0.516-0.104-0.679-0.285-0.998-1.067-0.713-1.746 0.343-0.817 0.517-1.686 0.517-2.581 0-0.901-0.176-1.773-0.523-2.594-0.287-0.678 0.031-1.461 0.709-1.748s1.461 0.031 1.747 0.709c0.487 1.151 0.734 2.374 0.734 3.633 0 1.252-0.244 2.468-0.726 3.614-0.214 0.51-0.709 0.817-1.23 0.817z"></path>
</symbol>

<symbol id="icon-watch" viewBox="0 0 32 32">
  <path class="path1" d="M24 7.058v-3.058c0-2.21-1.79-4-4-4h-8c-2.21 0-4 1.79-4 4v3.058c-2.454 2.197-4 5.389-4 8.942s1.546 6.745 4 8.942v3.058c0 2.21 1.79 4 4 4h8c2.21 0 4-1.79 4-4v-3.058c2.454-2.197 4-5.389 4-8.942s-1.546-6.745-4-8.942zM10.667 4c0-0.737 0.597-1.333 1.333-1.333h8c0.737 0 1.333 0.597 1.333 1.333v1.25c-1.607-0.799-3.417-1.25-5.333-1.25s-3.726 0.451-5.333 1.25v-1.25zM21.333 28c0 0.737-0.597 1.333-1.333 1.333h-8c-0.737 0-1.333-0.597-1.333-1.333v-1.25c1.607 0.799 3.417 1.25 5.333 1.25s3.727-0.451 5.333-1.25v1.25zM16 25.333c-5.155 0-9.333-4.179-9.333-9.333s4.179-9.333 9.333-9.333 9.333 4.179 9.333 9.333-4.179 9.333-9.333 9.333zM18.667 20c-0.341 0-0.682-0.13-0.943-0.391l-2.667-2.667c-0.25-0.25-0.391-0.589-0.391-0.943v-5.333c0-0.736 0.597-1.333 1.333-1.333s1.333 0.597 1.333 1.333v4.781l2.276 2.276c0.521 0.521 0.521 1.365 0 1.885-0.26 0.26-0.602 0.391-0.943 0.391z"></path>
</symbol>

<symbol id="icon-zoom-in" viewBox="0 0 32 32">
  <path class="path1" d="M30.276 28.391l-7.567-7.567c1.642-2.053 2.624-4.657 2.624-7.49 0-6.627-5.372-12-12-12s-12 5.373-12 12 5.373 12 12 12c2.833 0 5.437-0.982 7.49-2.624l7.567 7.567c0.26 0.26 0.602 0.391 0.943 0.391s0.683-0.13 0.943-0.391c0.521-0.52 0.521-1.365 0-1.885zM13.333 22.667c-5.155 0-9.333-4.179-9.333-9.333s4.179-9.333 9.333-9.333c5.155 0 9.333 4.179 9.333 9.333s-4.178 9.333-9.333 9.333zM18.667 13.333c0 0.736-0.597 1.333-1.333 1.333h-2.667v2.667c0 0.736-0.597 1.333-1.333 1.333s-1.333-0.597-1.333-1.333v-2.667h-2.667c-0.736 0-1.333-0.597-1.333-1.333s0.597-1.333 1.333-1.333h2.667v-2.667c0-0.736 0.597-1.333 1.333-1.333s1.333 0.597 1.333 1.333v2.667h2.667c0.737 0 1.333 0.597 1.333 1.333z"></path>
</symbol>

<symbol id="icon-zoom-out" viewBox="0 0 32 32">
  <path class="path1" d="M30.276 28.391l-7.567-7.567c1.642-2.053 2.624-4.657 2.624-7.49 0-6.627-5.372-12-12-12s-12 5.373-12 12 5.373 12 12 12c2.833 0 5.437-0.982 7.49-2.624l7.567 7.567c0.26 0.26 0.602 0.391 0.943 0.391s0.683-0.13 0.943-0.391c0.521-0.52 0.521-1.365 0-1.885zM13.333 22.667c-5.155 0-9.333-4.179-9.333-9.333s4.179-9.333 9.333-9.333c5.155 0 9.333 4.179 9.333 9.333s-4.178 9.333-9.333 9.333zM18.667 13.333c0 0.736-0.597 1.333-1.333 1.333h-8c-0.736 0-1.333-0.597-1.333-1.333s0.597-1.333 1.333-1.333h8c0.737 0 1.333 0.597 1.333 1.333z"></path>
</symbol>

</defs>
</svg>
